<svg width="123" height="122" viewBox="0 0 123 122" fill="none" xmlns="http://www.w3.org/2000/svg">
<path d="M0 8C0 3.58172 3.58172 0 8 0H115C119.418 0 123 3.58172 123 8V114C123 118.418 119.418 122 115 122H8C3.58172 122 0 118.418 0 114V8Z" fill="#B2B9FD"/>
<g style="mix-blend-mode:soft-light">
<path d="M102.927 52.25H96.0544V42.8H59.3999V73.5125H63.9817C63.9817 77.4343 67.0515 80.6 70.8544 80.6C74.6574 80.6 77.7272 77.4343 77.7272 73.5125H91.4726C91.4726 77.4343 94.5424 80.6 98.3454 80.6C102.148 80.6 105.218 77.4343 105.218 73.5125H109.8V61.7L102.927 52.25ZM70.8544 77.0563C68.953 77.0563 67.4181 75.4734 67.4181 73.5125C67.4181 71.5517 68.953 69.9688 70.8544 69.9688C72.7559 69.9688 74.2908 71.5517 74.2908 73.5125C74.2908 75.4734 72.7559 77.0563 70.8544 77.0563ZM91.4726 49.8875H86.8908V66.425H82.309V49.8875H77.7272V66.425H73.1454V49.8875H68.5635V66.425H63.9817V47.525H91.4726V49.8875ZM98.3454 77.0563C96.4439 77.0563 94.909 75.4734 94.909 73.5125C94.909 71.5517 96.4439 69.9688 98.3454 69.9688C100.247 69.9688 101.782 71.5517 101.782 73.5125C101.782 75.4734 100.247 77.0563 98.3454 77.0563ZM96.0544 61.7V55.7938H101.782L106.272 61.7H96.0544Z" fill="#343D9A"/>
<rect x="51" y="68" width="8.4" height="5.6" fill="#343D9A"/>
<path d="M39.7999 40L50.9999 47.7L52.3999 56.8H39.7999V40Z" fill="#343D9A"/>
<path d="M27.2 40L16 47.7L14.6 56.8H27.2V40Z" fill="#343D9A"/>
<rect x="27.2" y="40" width="12.6" height="16.8" fill="#343D9A"/>
<path fill-rule="evenodd" clip-rule="evenodd" d="M52.4 56.8H13.2V73.6H24.54C24.4482 74.0524 24.4 74.5206 24.4 75C24.4 78.866 27.534 82 31.4 82C35.2659 82 38.4 78.866 38.4 75C38.4 74.5206 38.3517 74.0524 38.2599 73.6H52.4V56.8ZM31.4 77.8C32.9464 77.8 34.2 76.5464 34.2 75C34.2 73.4536 32.9464 72.2 31.4 72.2C29.8536 72.2 28.6 73.4536 28.6 75C28.6 76.5464 29.8536 77.8 31.4 77.8Z" fill="#343D9A"/>
</g>
</svg>
