<svg width="1078" height="647" viewBox="0 0 1078 647" fill="none" xmlns="http://www.w3.org/2000/svg">
<g clip-path="url(#clip0_2122_19281)">
<path d="M1005.24 615.878H28.9864C26.1972 615.878 23.9363 613.617 23.9363 610.828C23.9363 608.039 26.1972 605.778 28.9861 605.778H1005.24C1008.03 605.778 1010.29 608.039 1010.29 610.828C1010.29 613.617 1008.03 615.878 1005.24 615.878Z" fill="#252952"/>
<path d="M1414.93 430.876C1414.92 429.578 1414.91 428.403 1414.9 427.36C1414.87 423.819 1413.57 420.413 1411.25 417.74C1383.68 386.056 1267.88 247.742 1230.85 212.876C1219.38 201.967 1199.49 199.016 1166.66 199.016C1166.66 199.016 637.174 199.016 617.176 199.016C582.294 199.016 569.795 217.875 569.795 257.755C569.795 286.273 572.41 484.405 572.41 484.405C572.41 484.405 578.309 554.399 590.551 558.963C593.048 559.893 1402.44 564.921 1407.78 556.059C1413.12 547.197 1414.8 490.226 1414.8 490.226C1414.86 485.41 1414.91 480.639 1414.94 475.987C1415.08 457.359 1415 440.654 1414.93 430.876Z" fill="#B2B9FD"/>
<path d="M1414.98 483.36C1414.98 483.36 1415.68 549.331 1411.25 555.592C1406.22 560.925 1398.54 564.263 1390.18 564.741C1381.42 565.945 1312.58 565.383 1312.58 565.383C1312.58 565.383 602.344 560.086 590.552 558.962C578.76 557.838 574.124 550.214 573.72 539.299C573.72 536.972 572.612 500.615 572.41 479.909L1414.98 483.36Z" fill="#343D9A"/>
<path d="M739.028 582.846C769.6 552.274 769.6 502.707 739.028 472.135C708.457 441.563 658.89 441.563 628.318 472.135C597.746 502.707 597.746 552.274 628.318 582.846C658.89 613.418 708.457 613.418 739.028 582.846Z" fill="#4D5DFA"/>
<path d="M683.678 584.574C715.203 584.574 740.759 559.018 740.759 527.493C740.759 495.968 715.203 470.411 683.678 470.411C652.153 470.411 626.597 495.968 626.597 527.493C626.597 559.018 652.153 584.574 683.678 584.574Z" fill="#B8C6F2"/>
<path d="M683.678 558.267C700.674 558.267 714.452 544.489 714.452 527.493C714.452 510.496 700.674 496.718 683.678 496.718C666.682 496.718 652.904 510.496 652.904 527.493C652.904 544.489 666.682 558.267 683.678 558.267Z" fill="#98B0F2"/>
<path d="M813.014 497.333H1044.71C1051.65 497.333 1057.27 491.706 1057.27 484.766V233.403C1057.27 226.462 1051.65 220.837 1044.71 220.837H813.014C806.074 220.837 800.448 226.463 800.448 233.403V484.766C800.448 491.706 806.074 497.333 813.014 497.333Z" fill="#272A66"/>
<path d="M996.288 273.671H885.302V496.718H996.288V273.671Z" fill="#313480"/>
<path d="M952.404 325.428H842.075V496.718H952.404V325.428Z" fill="#3A3D96"/>
<path d="M1045.47 373.902H929.75V496.718H1045.47V373.902Z" fill="#4043A6"/>
<path d="M617.212 496.718H848.904C855.845 496.718 861.471 491.092 861.471 484.152V232.789C861.471 225.849 855.845 220.223 848.904 220.223H617.212C610.272 220.223 604.646 225.849 604.646 232.789V484.152C604.646 491.092 610.272 496.718 617.212 496.718Z" fill="#8893F8"/>
<path d="M861.471 405.386H604.646V430.876H861.471V405.386Z" fill="#C9CEFD"/>
<path d="M816.314 363.435H644.051C633.883 363.435 625.641 355.193 625.641 345.025V254.302C625.641 244.134 633.883 235.891 644.051 235.891H816.314C826.482 235.891 834.724 244.134 834.724 254.302V345.025C834.724 355.193 826.482 363.435 816.314 363.435Z" fill="#616FFA"/>
<path d="M1007.43 455.211H885.959V605.778H1007.43V455.211Z" fill="#DE8914"/>
<path d="M910.986 419.55H786.657V605.778H910.986V419.55Z" fill="#FF9A16"/>
<path d="M960.72 478.817H833.76V605.778H960.72V478.817Z" fill="#FAAF16"/>
<path d="M944.233 499.631H885.302V523.764H944.233V499.631Z" fill="#FAC352"/>
<path d="M864.471 520.288L841.966 532.744L854.421 555.249L876.927 542.794L864.471 520.288Z" fill="#FF9A16"/>
<path d="M861.471 550.742C861.471 558.9 868.085 565.514 876.243 565.514C884.402 565.514 891.015 558.9 891.015 550.742C891.015 542.583 884.402 535.969 876.243 535.969C868.085 535.969 861.471 542.583 861.471 550.742Z" fill="#FAC352"/>
<path d="M322 109.911C322.957 88.5323 340.594 71.4909 362.21 71.4909C369.509 71.4909 376.353 73.4345 382.255 76.8293L382.256 76.8296C382.988 66.3081 391.753 58 402.461 58C412.062 58 420.103 64.6809 422.19 73.6474C424.752 73.0295 427.424 72.7037 430.175 72.7037C444.651 72.7037 457.018 81.7404 461.938 94.4821C464.828 93.3391 467.977 92.7099 471.274 92.7099C479.188 92.7099 486.255 96.3296 490.912 102.005C493.501 105.16 491.197 109.911 487.116 109.911H322Z" fill="#C9CEFD"/>
<path d="M1027.76 138.338C1027.76 138.559 1027.76 138.778 1027.75 138.996H951.802C953.95 131.588 960.787 126.17 968.89 126.17C970.746 126.17 972.534 126.454 974.214 126.98C978.568 117.191 988.378 110.363 999.784 110.363C1015.24 110.363 1027.76 122.889 1027.76 138.338Z" fill="#C9CEFD"/>
<path d="M894.08 187.9C894.08 188.19 894.075 188.48 894.062 188.768H763.01C762.997 188.48 762.992 188.19 762.992 187.9C762.992 175.096 773.369 164.718 786.17 164.718C788.589 164.718 790.918 165.089 793.107 165.775C798.78 153.018 811.563 144.125 826.424 144.125C841.852 144.125 855.039 153.71 860.359 167.247C863.523 165.63 867.105 164.718 870.9 164.718C883.702 164.718 894.08 175.096 894.08 187.9Z" fill="#C9CEFD"/>
<path d="M148.2 159.283C148.2 159.574 148.195 159.864 148.182 160.152H17.1303C17.1173 159.864 17.1118 159.574 17.1118 159.283C17.1118 146.48 27.49 136.102 40.2909 136.102C42.7088 136.102 45.0383 136.473 47.2277 137.159C52.9 124.402 65.6831 115.509 80.5437 115.509C95.9721 115.509 109.16 125.094 114.479 138.631C117.643 137.014 121.225 136.102 125.021 136.102C137.822 136.102 148.2 146.48 148.2 159.283Z" fill="#C9CEFD"/>
<path d="M324.994 584.054C325.621 581.359 327.146 578.952 327.902 576.289C328.448 574.367 328.583 572.355 328.676 570.359C328.768 568.379 328.839 566.327 329.716 564.548C330.667 562.616 332.494 561.217 334.491 560.409C336.487 559.599 338.656 559.324 340.805 559.169C342.637 559.038 344.482 558.989 346.305 559.215C347.276 559.336 348.254 559.54 349.115 560.005C350.76 560.895 351.763 562.605 352.685 564.233C352.39 564.105 352.146 563.868 352.01 563.577L352.523 564.946C351.596 569.505 352.209 574.366 354.24 578.552C354.869 579.851 355.629 581.082 356.286 582.367C356.983 583.732 357.565 585.157 358.023 586.62C358.318 587.563 358.561 588.568 358.333 589.529C358.189 590.137 357.861 590.689 357.483 591.188C356.002 593.141 353.72 594.37 351.348 594.989C348.976 595.608 346.497 595.666 344.046 595.641C340.668 595.608 337.251 595.417 334.022 594.424C330.793 593.431 327.735 591.561 325.87 588.745C325.355 587.967 324.931 587.105 324.818 586.18C324.731 585.473 324.832 584.751 324.994 584.054Z" fill="#257062"/>
<path d="M179.502 575.893C179.141 577.929 178.967 580.016 178.264 581.961C176.443 586.987 170.81 590.321 165.528 589.498C163.899 589.244 162.261 588.594 161.201 587.333C159.998 585.901 159.713 583.912 159.716 582.041C159.728 575.806 162.354 569.911 164.93 564.233C165.835 562.239 166.765 560.207 168.258 558.607C170.8 555.883 175.107 554.776 178.467 556.391C186.597 560.294 180.548 570.006 179.502 575.893Z" fill="#257062"/>
<path d="M188.633 572.745C187.598 572.843 186.563 572.891 185.544 572.9C180.941 572.94 176.371 572.012 172.18 570.09C168.382 568.349 164.991 565.859 162.029 562.926C161.996 562.045 162.106 561.137 162.227 560.265C164.696 542.345 167.302 523.998 175.889 508.028C180.308 499.81 186.193 492.462 191.247 484.609C195.953 477.296 199.947 469.526 202.975 461.394C211.295 439.061 212.127 414.798 216.591 391.414C217.28 387.803 218.148 384.026 220.639 381.298C223.109 378.591 226.781 377.346 230.295 376.242C241.996 372.566 253.954 369.26 266.219 368.712C278.484 368.165 291.207 370.578 301.287 377.504C313.602 385.964 320.694 400.209 324.202 414.617C324.877 417.389 325.442 420.243 325.125 423.078C324.473 428.899 319.97 433.91 314.451 436.05C308.933 438.189 302.607 437.703 297.084 435.576C288.544 432.289 281.705 424.536 272.353 428.678C264.292 432.248 257.876 438.924 253.134 446.15C247.033 455.448 243.176 465.977 238.186 475.901C231.323 489.554 222.32 502.049 214.998 515.468C206.35 531.318 200.118 548.318 193.495 565.094C192.381 567.92 190.992 570.988 188.633 572.745Z" fill="#668EB2"/>
<path d="M272.522 381.776C271.68 379.685 290.801 370.413 292.957 369.493C299.389 366.751 305.732 363.088 310.991 368.894C322.609 381.722 331.986 398.022 340.879 412.798C346.075 421.432 350.996 430.232 355.631 439.18C358.799 445.296 361.862 451.558 363.349 458.284C364.996 465.729 364.65 473.453 364.217 481.066C362.616 509.219 360.835 537.446 356.175 565.257C355.799 567.501 355.558 569.123 355.317 570.38C355.147 570.535 354.978 570.691 354.803 570.841C350.156 574.844 343.403 575.669 337.493 575.269C334.117 575.042 330.819 574.392 327.665 573.151C327.176 572.959 326.694 572.751 326.215 572.538C325.894 571.763 325.821 570.88 325.765 570.031C323.8 540.718 321.877 510.871 328.717 482.3C329.117 480.627 329.548 478.879 329.129 477.211C328.732 475.628 327.622 474.336 326.542 473.112C311.855 456.462 296.4 440.491 280.242 425.266L309.538 409.879C311.296 408.956 313.309 407.62 313.235 405.636C309.104 405.103 305.214 407.405 301.52 409.328C294.853 412.799 287.67 415.276 280.282 416.652C283.914 411.611 286.729 405.983 288.583 400.052C285.862 400.507 283.141 400.961 280.42 401.417C277.788 394.867 275.155 388.321 272.522 381.776Z" fill="#7DA0C6"/>
<g opacity="0.56">
<path d="M276.228 391.27C278.78 398.523 280.775 405.949 281.973 413.535C282.986 418.03 280.593 420.124 276.424 421.127C275.607 421.294 274.738 421.286 274.434 420.379C273.517 417.671 272.736 414.872 272.014 412.094C272.275 414.005 272.663 415.896 273.074 417.784C273.297 418.73 273.518 419.646 273.792 420.609C273.932 421.144 274.393 421.695 274.951 421.858C276.513 422.253 278.009 421.603 279.428 421.041C281.305 420.247 283.022 418.52 283.168 416.381C283.279 415.339 283.147 414.333 283 413.373C281.762 405.733 279.545 398.236 276.228 391.27Z" fill="#BCD0DD"/>
<path d="M325.9 387.992C317.465 388.494 309.077 384.938 303.561 378.54C307.913 385.977 317.533 390.042 325.9 387.992Z" fill="#BCD0DD"/>
<path d="M242.201 394.619C241.708 401.9 238.214 409.49 231.187 412.437C228.951 413.405 226.474 413.87 223.969 413.642C226.405 414.304 229.079 414.072 231.486 413.192C238.953 410.595 242.951 402.173 242.201 394.619Z" fill="#BCD0DD"/>
</g>
<path opacity="0.17" d="M310.069 383.004C307.799 385.118 305.478 387.212 303.08 389.183C298.693 392.789 293.873 395.872 288.761 398.345C278.614 403.254 267.345 405.637 256.085 405.448C250.536 405.355 245.065 404.553 239.621 403.523C234.464 402.546 229.343 401.329 224.355 399.684C221.416 398.715 218.52 397.58 215.718 396.261C215.995 394.642 216.285 393.026 216.592 391.414C217.282 387.803 218.15 384.026 220.641 381.298C223.11 378.591 226.782 377.346 230.296 376.242C241.997 372.566 253.956 369.259 266.22 368.712C273.817 368.374 281.588 369.174 288.799 371.475C290.85 370.46 292.425 369.72 292.958 369.492C299.39 366.75 305.734 363.087 310.992 368.892C313.029 371.141 314.994 373.502 316.903 375.938C314.809 378.46 312.461 380.778 310.069 383.004ZM324.971 387.142C323.32 384.684 321.635 382.256 319.895 379.892C318.511 382.039 316.775 383.971 314.926 385.717C311.813 388.654 308.302 391.158 304.679 393.424C300.566 395.997 296.117 398.075 291.626 399.898C286.85 401.838 281.932 403.424 276.934 404.682C267.351 407.092 257.373 408.47 247.482 408.406C238.276 408.347 229.047 407.144 220.142 404.801C218.287 404.312 216.442 403.769 214.612 403.176C214.487 404.001 214.365 404.826 214.245 405.652C216.291 406.594 218.365 407.478 220.471 408.287C229.271 411.668 238.518 413.777 247.907 414.613C257.58 415.474 267.383 414.99 276.924 413.184C286.517 411.37 296.026 408.265 304.633 403.617C309.123 401.191 313.255 398.114 317.074 394.741C318.868 393.157 320.574 391.478 322.311 389.834C323.226 388.967 324.126 388.078 324.971 387.142ZM328.718 482.296C321.877 510.868 323.802 540.714 325.767 570.028C325.824 570.877 325.896 571.759 326.216 572.534C326.696 572.747 327.177 572.955 327.666 573.147C330.82 574.388 334.117 575.038 337.494 575.266C342.938 575.634 349.094 574.956 353.665 571.718C351.644 570.582 349.897 569.059 348.743 566.985C347.318 564.423 347.11 561.452 347.531 558.599C348.076 554.906 349.524 551.198 351.504 548.044C352.511 546.441 353.651 544.82 354.22 542.996C354.742 541.331 354.384 539.519 352.468 539.048C350.524 538.57 348.268 539.406 346.515 540.205C344.711 541.027 343.291 542.355 341.82 543.652C340.538 544.784 339.07 546.186 337.322 546.498C335.621 546.802 334.221 545.677 333.421 544.258C332.609 542.818 332.42 541.085 332.437 539.459C332.457 537.473 332.786 535.49 333.208 533.555C334.004 529.908 335.287 526.419 336.301 522.834C337.119 519.945 337.701 516.968 338.424 514.051C339.185 510.979 339.96 507.911 340.72 504.838C341.463 501.839 342.053 498.772 342.914 495.807C343.729 493 344.637 490.22 345.377 487.391C346.739 482.177 347.504 476.673 345.931 471.414C345.069 468.531 343.508 465.921 341.256 463.912C339.092 461.981 336.431 460.689 333.701 459.768C327.534 457.686 320.946 457.181 314.555 456.16C313.179 455.941 311.782 455.701 310.389 455.421C315.869 461.228 321.263 467.116 326.545 473.104C327.624 474.327 328.735 475.62 329.133 477.202C329.549 478.874 329.118 480.623 328.718 482.296ZM248.188 454.752C249.699 451.808 251.316 448.924 253.135 446.151C257.877 438.925 264.294 432.249 272.354 428.679C276.662 426.772 280.437 427.389 284.091 428.931C289.101 433.722 294.037 438.59 298.908 443.522C299.563 443.86 300.215 444.197 300.867 444.534C301.919 443.348 302.718 441.908 302.546 440.27C302.392 438.809 301.522 437.502 300.566 436.435C298.386 434.001 295.522 432.308 292.828 430.516C292.436 430.254 292.539 429.496 293.091 429.546C294.703 429.693 296.32 429.803 297.939 429.831C299.588 429.861 301.627 429.997 303.176 429.311C303.339 429.239 303.556 429.107 303.635 429.022C303.739 428.907 303.735 428.821 303.677 428.651C303.445 427.977 302.641 427.517 302.053 427.219C300.134 426.246 297.84 425.913 295.726 425.69C293.59 425.465 291.306 425.288 289.169 425.605C288.526 425.701 288.225 424.761 288.892 424.603C297.16 422.63 305.649 421.151 313.306 417.289C316.441 415.707 319.441 413.784 322.454 411.979C325.392 410.219 328.307 408.364 330.905 406.121C332.225 404.982 333.509 403.711 334.557 402.287C333.576 400.668 332.587 399.045 331.583 397.423C330.974 398.129 330.349 398.822 329.716 399.507C326.067 403.447 321.886 406.674 317.201 409.301C312.171 412.121 306.77 414.352 301.353 416.308C295.805 418.313 290.123 419.944 284.357 421.185C272.901 423.65 261.018 424.681 249.313 423.985C243.321 423.628 237.362 422.673 231.554 421.158C226.105 419.735 220.875 417.7 215.621 415.698C214.737 415.362 213.854 415.022 212.969 414.681C212.805 415.855 212.642 417.031 212.479 418.204C216.732 419.826 220.999 421.407 225.343 422.771C228.826 423.865 232.368 424.863 235.955 425.554C239.632 426.262 243.377 426.539 247.108 426.78C251.289 427.051 255.477 427.287 259.615 427.987C260.081 428.065 260.088 428.72 259.739 428.937C253.962 432.534 246.295 432.962 241.101 437.486C246.608 436.791 252.05 435.661 257.307 433.851C257.753 433.697 258.103 434.239 257.895 434.615C256.127 437.801 253.113 439.887 250.722 442.55C249.454 443.963 248.429 445.568 247.853 447.387C247.133 449.66 247.344 451.959 248.014 454.218C248.07 454.395 248.13 454.573 248.188 454.752ZM163.933 564.687C166.421 566.855 169.171 568.71 172.181 570.09C176.372 572.011 180.943 572.939 185.545 572.9C186.565 572.892 187.6 572.843 188.635 572.745C190.993 570.988 192.381 567.92 193.497 565.092C200.122 548.317 206.352 531.317 215.001 515.467C218.802 508.5 223.056 501.781 227.23 495.02C222.842 496.719 218.055 497.475 213.459 498.55C211.633 498.977 209.821 499.469 208.061 500.118C206.351 500.75 204.743 501.586 203.147 502.463C199.837 504.28 196.645 506.32 193.61 508.569C190.459 510.905 187.467 513.486 184.805 516.372C182.333 519.05 179.957 522.096 178.596 525.51C178.192 526.526 177.791 527.759 178.296 528.813C178.838 529.947 180.108 530.667 181.141 531.285C183.283 532.565 185.754 533.928 187.224 536.009C188.899 538.379 188.964 541.657 188.76 544.438C188.505 547.933 187.521 551.384 185.858 554.471C184.184 557.577 181.74 560.45 178.612 562.151C175.2 564.005 171.222 565.045 167.334 564.974C166.194 564.954 165.055 564.862 163.933 564.687Z" fill="#ACB7C1"/>
<path d="M195.064 193.308C195.931 188.143 198.42 183.151 202.49 179.775C211.595 172.222 228.56 176.133 235.193 179.962C238.189 181.69 240.401 183.686 242.48 186.456C242.518 186.507 242.558 186.558 242.596 186.611C242.629 186.655 242.662 186.7 242.696 186.746C243.004 187.158 243.31 187.597 243.404 188.104C243.548 188.883 243.169 189.654 243.042 190.437C242.785 192.01 243.576 193.587 244.643 194.771C245.71 195.955 247.049 196.856 248.221 197.936C248.709 198.384 249.184 198.892 249.365 199.53C249.779 200.986 248.261 202.459 246.801 203.44C245.562 204.272 246.206 204.668 246.75 204.965C248.157 205.732 247.947 207.241 246.395 208.157C247.219 208.018 248.007 208.568 248.226 209.336C248.374 209.856 248.399 210.425 248.053 210.833C247.328 211.688 247.027 212.116 247.597 213.532C248.373 215.46 250.349 217.003 248.746 219.479C246.813 222.463 244.48 222.375 241.496 224.065C235.532 227.443 234.765 242.018 234.286 247.547C234.198 248.568 233.37 249.354 232.357 249.206C222.645 247.787 196.175 242.04 204.456 237.505C205.103 237.151 207.754 234.993 208.652 233.45C209.812 231.457 210.441 229.123 210.512 228.829C212.388 221.112 206.97 216.621 201.31 212.658C195.257 208.417 193.916 200.159 195.064 193.308Z" fill="#B35650"/>
<path opacity="0.4" d="M237.055 196.51C237.58 195.867 238.013 195.155 238.04 194.303C238.052 193.909 237.887 193.364 238.029 192.991C238.096 192.816 238.264 192.755 238.447 192.672C238.758 192.53 239.565 192.314 240.066 191.969C240.307 192.577 240.015 193.064 239.786 193.635C239.566 194.181 239.542 194.723 239.617 195.3C239.762 196.415 240.153 197.735 241.003 198.523C241.153 198.662 241.374 198.697 241.556 198.594C242.534 198.039 243.816 198.76 244.358 199.685C242.916 200.119 241.544 200.774 240.079 201.136C238.724 201.471 237.309 201.511 236.422 200.272C236.058 199.763 235.461 199.062 235.691 198.386C235.932 197.678 236.592 197.076 237.055 196.51Z" fill="#D3B7B6"/>
<path opacity="0.5" d="M217.377 203.738C217.264 203.904 217.136 204.059 216.979 204.195C216.825 204.327 216.657 204.406 216.427 204.452C216.423 204.454 216.422 204.454 216.422 204.454C216.417 204.454 216.415 204.454 216.41 204.454C216.39 204.455 216.371 204.456 216.35 204.457C216.291 204.46 216.231 204.456 216.172 204.452C216.163 204.452 216.164 204.452 216.158 204.452C216.156 204.451 216.158 204.451 216.154 204.451C216.127 204.446 216.1 204.442 216.074 204.436C216.014 204.423 215.954 204.405 215.896 204.386C215.77 204.344 215.778 204.345 215.634 204.265C215.522 204.202 215.413 204.132 215.311 204.054C214.569 203.491 213.97 202.468 213.704 201.522C213.635 201.277 213.589 201.037 213.573 200.853C213.554 200.615 213.564 200.38 213.601 200.205C213.658 199.933 213.72 199.75 213.84 199.536C213.96 199.325 214.02 199.245 214.217 199.071C214.24 199.052 214.262 199.033 214.285 199.014C214.291 199.01 214.294 199.008 214.302 199.002C214.341 198.975 214.379 198.948 214.42 198.925C214.465 198.897 214.512 198.871 214.561 198.846C214.575 198.839 214.615 198.82 214.633 198.811C214.725 198.774 214.819 198.742 214.915 198.718C214.966 198.705 215.017 198.694 215.069 198.684C215.09 198.679 215.111 198.675 215.133 198.673C215.331 198.65 215.529 198.653 215.728 198.672C215.732 198.672 215.733 198.672 215.736 198.673C215.739 198.673 215.739 198.673 215.741 198.674C215.766 198.679 215.792 198.683 215.817 198.687C215.861 198.696 215.904 198.705 215.949 198.715C216.046 198.739 216.143 198.767 216.237 198.801C216.259 198.809 216.321 198.835 216.328 198.838C216.362 198.853 216.397 198.87 216.43 198.888C216.504 198.926 216.573 198.971 216.642 199.015C216.666 199.031 216.676 199.035 216.682 199.038C216.684 199.041 216.688 199.045 216.702 199.058C216.735 199.088 216.77 199.117 216.802 199.149C216.83 199.175 216.856 199.205 216.882 199.232C216.893 199.243 216.902 199.256 216.913 199.268C216.956 199.334 216.995 199.399 217.029 199.469C217.034 199.481 217.038 199.495 217.042 199.508C217.053 199.548 217.062 199.589 217.073 199.629C217.077 199.641 217.078 199.641 217.079 199.646C217.078 199.651 217.077 199.651 217.075 199.666C217.073 199.708 217.074 199.754 217.075 199.796C217.075 199.809 217.077 199.809 217.077 199.815C217.075 199.819 217.074 199.816 217.073 199.826C217.062 199.873 217.053 199.918 217.04 199.963C217.026 200.01 217.03 200.05 217.029 200.092C216.695 200.175 216.391 200.341 216.205 200.658C215.99 201.023 216.022 201.487 216.144 201.876C216.362 202.571 216.82 203.236 217.377 203.738Z" fill="#B35650"/>
<path opacity="0.4" d="M212.95 211.133C212.278 210.32 211.637 209.485 211.079 208.585C208.952 205.157 208.088 199.639 211.092 196.419C212.649 194.75 215.052 193.961 217.061 195.307C218.404 196.206 219.367 197.707 219.812 199.307C219.802 199.3 219.796 199.298 219.786 199.289C219.774 199.281 219.761 199.275 219.749 199.268C219.198 197.207 217.573 195.179 215.351 195.03C213.284 194.892 211.581 196.648 210.879 198.439C210.179 200.223 210.294 202.297 210.913 204.085C211.536 205.886 212.761 207.737 214.56 208.533C216.455 209.371 218.267 208.475 219.358 206.909C219.816 207.512 219.528 208.407 219.154 209.049C218.522 210.133 217.455 211.034 216.274 211.464C215.149 211.874 213.951 211.799 212.95 211.133Z" fill="#D3B7B6"/>
<path opacity="0.4" d="M234.725 241.891C234.383 240.064 233.782 238.258 233.234 236.55C232.24 233.443 231.311 230.319 229.527 227.549C228.818 226.447 228 225.386 226.997 224.536C226.22 223.877 225.392 223.279 224.579 222.667C222.693 221.248 220.645 219.773 219.262 217.827C218.734 217.084 218.264 216.212 218.306 215.273C218.354 214.208 219.268 212.977 220.308 212.71C221.148 212.493 221.977 212.976 222.639 213.444C223.389 213.976 224.064 214.614 224.784 215.184C226.185 216.293 227.652 217.322 229.261 218.106C231.554 219.222 234.098 219.941 236.609 220.362C239.06 220.773 241.728 220.953 244.123 220.152C246.124 219.484 248.189 217.826 248.272 215.558C248.281 215.309 248.275 215.06 248.263 214.811C249.092 216.213 249.98 217.566 248.745 219.474C246.812 222.459 244.388 222.484 241.495 224.06C238.115 225.902 236.034 231.311 235.377 236.221C235.13 238.064 234.985 239.915 234.738 241.758C234.733 241.803 234.73 241.847 234.725 241.891Z" fill="#D3B7B6"/>
<path opacity="0.68" d="M242.553 208.403C242.43 208.379 242.416 208.207 242.53 208.157C243.192 207.867 243.549 207.671 244.301 207.27C245.072 206.859 245.596 206.619 246.369 206.086C246.702 205.856 247.135 205.802 247.53 205.703C247.821 206.249 247.708 206.896 247.226 207.467C246.931 207.798 246.575 208.089 246.395 208.154C245.312 208.536 243.94 208.666 242.553 208.403Z" fill="#B24C3F"/>
<path opacity="0.55" d="M217.073 221.484C217.754 220.993 218.515 220.823 219.078 220.17C221.609 217.236 221.022 209.618 220.919 205.796C221.092 205.797 221.267 205.808 221.437 205.802C221.769 205.791 222.102 205.777 222.433 205.774C223.059 205.766 223.685 205.784 224.31 205.825C224.898 207.37 225.595 209.422 226.745 210.61C227.299 211.183 227.951 211.688 228.677 212.024C229.5 212.406 230.381 212.526 231.277 212.613C232.367 212.719 233.465 212.719 234.55 212.568C235.323 212.459 236.129 212.295 236.733 211.766C237.802 210.83 238.205 209.501 238.876 208.318C240.357 205.708 243.4 204.991 246.096 204.241C246.061 204.567 246.422 204.783 246.75 204.962C246.994 205.094 247.184 205.25 247.332 205.419C246.376 206.01 245.192 206.25 244.176 206.704C243.378 207.059 242.688 207.57 242.131 208.244C240.45 210.284 239.515 214.35 242.6 215.631C243.353 215.943 244.33 216.115 245.134 215.915C245.853 215.735 246.173 215.159 246.254 214.466C246.318 213.916 246.225 213.265 246.63 212.829C246.862 212.58 247.195 212.45 247.56 212.379C247.428 212.68 247.399 213.034 247.597 213.528C248.373 215.456 250.349 216.999 248.746 219.474C246.814 222.459 244.292 222.388 241.497 224.06C240.731 224.518 240.067 225.042 239.482 225.616C237.712 226.161 235.9 226.565 234.062 226.81C229.521 227.414 224.889 227.027 220.746 224.954C219.575 224.369 218.36 223.777 217.424 222.838C217.063 222.475 216.522 221.883 217.073 221.484Z" fill="black"/>
<path d="M230.158 193.614C230.762 192.237 231.922 191.143 233.269 190.477C235.164 189.537 237.183 189.543 239.242 189.62C239.827 189.643 240.363 189.637 240.748 190.139C241.25 190.795 241.171 191.875 240.161 191.792C239.253 191.717 238.374 191.436 237.473 191.298C234.854 190.896 232.07 191.779 230.158 193.614Z" fill="#7C0050"/>
<path d="M232.259 195.495C232.414 195.06 232.89 194.791 233.346 194.581C233.722 194.408 234.922 193.943 236.101 193.642C236.214 193.59 236.334 193.554 236.461 193.553C236.464 193.553 236.466 193.554 236.47 193.554C237.824 193.249 239.032 193.23 238.766 194.212C238.748 194.279 238.722 194.348 238.66 194.389C238.6 194.428 238.52 194.431 238.447 194.433C238.133 194.441 237.819 194.459 237.507 194.482C237.559 194.652 237.59 194.837 237.592 195.031C237.596 195.851 237.098 196.518 236.478 196.522C235.974 196.524 235.549 196.083 235.405 195.477C235.42 195.475 235.435 195.473 235.45 195.471C235.454 195.471 235.458 195.473 235.463 195.473C235.472 195.474 235.48 195.474 235.488 195.474C235.537 195.473 235.585 195.463 235.633 195.455C235.641 195.454 235.649 195.452 235.658 195.45C235.711 195.437 235.764 195.409 235.814 195.387C235.883 195.356 235.943 195.303 235.999 195.257C236.057 195.208 236.104 195.142 236.146 195.082C236.191 195.02 236.218 194.947 236.244 194.876C236.269 194.807 236.28 194.73 236.278 194.657C236.276 194.639 236.273 194.622 236.27 194.605C234.899 194.777 233.553 195.074 232.259 195.495Z" fill="#7C0050"/>
<path opacity="0.31" d="M246.077 202.373C245.796 202.299 245.519 202.481 245.285 202.654C244.567 203.187 243.848 203.719 243.13 204.252C242.824 204.48 242.496 204.715 242.117 204.746C241.72 204.778 241.327 204.572 241.077 204.262C240.651 203.738 240.657 202.881 241.158 202.429C241.301 202.3 241.566 202.227 241.658 202.398C241.689 202.454 241.687 202.522 241.689 202.586C241.693 202.985 241.826 203.432 242.183 203.609C242.434 203.733 242.738 203.692 242.991 203.572C243.242 203.453 243.455 203.265 243.668 203.087C244.27 202.587 244.924 202.151 245.615 201.785C245.938 201.615 246.365 201.47 246.639 201.71C246.875 201.916 246.849 202.3 246.709 202.58C246.625 202.747 246.501 202.903 246.332 202.982C246.187 203.049 246.029 203.041 245.906 202.956C246.036 202.819 246.167 202.565 246.077 202.373Z" fill="#7C0050"/>
<path opacity="0.55" d="M195.064 193.308C195.931 188.143 198.42 183.15 202.49 179.775C210.491 173.138 224.559 175.355 232.354 178.586C230.704 179.192 228.65 179.063 226.968 178.909C225.66 178.79 224.402 178.237 223.072 178.313C221.359 178.411 220.526 179.994 221.369 181.518C221.778 182.259 222.452 182.777 222.983 183.418C223.556 184.107 224.032 184.86 224.399 185.678C224.788 186.546 225.274 187.414 225.496 188.35C225.893 190.03 225.025 191.237 224.232 192.627C222.857 195.04 222.883 197.736 223.313 200.419C223.599 202.209 224.082 204.023 224.308 205.824C223.178 205.757 222.034 205.775 220.918 205.795C220.553 203.75 220.432 201.65 219.925 199.632C219.497 197.926 218.543 196.147 216.982 195.131C214.603 193.584 212.087 195.509 211.073 197.613C209.432 201.015 211.327 205.1 212.907 208.161C214.727 211.69 216.787 215.322 216.613 219.439C216.489 222.376 214.205 226.601 210.887 225.984C210.979 219.953 206.236 216.102 201.31 212.654C195.257 208.417 193.916 200.159 195.064 193.308Z" fill="#7C0050"/>
<path opacity="0.55" d="M195.064 193.308C195.931 188.143 198.42 183.15 202.49 179.775C210.491 173.138 224.559 175.355 232.354 178.586C230.704 179.192 228.65 179.063 226.968 178.909C225.66 178.79 224.402 178.237 223.072 178.313C221.359 178.411 220.526 179.994 221.369 181.518C221.778 182.259 222.452 182.777 222.983 183.418C223.556 184.107 224.032 184.86 224.399 185.678C224.788 186.546 225.274 187.414 225.496 188.35C225.893 190.03 225.025 191.237 224.232 192.627C222.857 195.04 222.883 197.736 223.313 200.419C223.599 202.209 224.082 204.023 224.308 205.824C223.178 205.757 222.034 205.775 220.918 205.795C220.553 203.75 220.432 201.65 219.925 199.632C219.497 197.926 218.543 196.147 216.982 195.131C214.603 193.584 212.087 195.509 211.073 197.613C209.432 201.015 211.327 205.1 212.907 208.161C214.727 211.69 216.787 215.322 216.613 219.439C216.489 222.376 214.205 226.601 210.887 225.984C210.979 219.953 206.236 216.102 201.31 212.654C195.257 208.417 193.916 200.159 195.064 193.308Z" fill="black"/>
<path opacity="0.55" d="M223.073 178.314C221.361 178.412 220.527 179.995 221.37 181.519C221.779 182.26 222.453 182.778 222.985 183.419C223.039 183.483 223.087 183.551 223.139 183.618C221.717 182.862 220.166 182.323 218.634 181.972C215.249 181.199 211.56 181.162 208.242 182.267C204.932 183.37 202.091 185.581 200.2 188.511C199.221 190.027 198.507 191.72 198.068 193.469C197.662 195.09 197.458 196.714 196.837 198.279C196.398 199.387 195.794 200.522 194.951 201.401C194.551 198.698 194.627 195.903 195.062 193.31C195.929 188.144 198.418 183.152 202.488 179.776C210.489 173.139 224.556 175.356 232.352 178.587C230.701 179.193 228.648 179.064 226.966 178.91C225.662 178.79 224.404 178.238 223.073 178.314Z" fill="black"/>
<path opacity="0.55" d="M234.928 201.519C235.833 202.177 236.867 202.998 236.825 204.116C236.782 205.267 235.628 206.011 234.61 206.55C233.664 207.051 232.718 207.551 231.772 208.052C231.575 208.156 231.359 208.263 231.14 208.225C230.887 208.181 230.71 207.96 230.558 207.754C229.74 206.652 228.929 205.545 228.127 204.432C227.662 203.787 227.194 203.131 226.91 202.388C226.507 201.333 226.509 200.113 226.989 199.091C227.72 197.534 229.142 196.73 230.53 197.86C232.014 199.068 233.374 200.389 234.928 201.519Z" fill="#BF6960"/>
<path d="M288.675 386.593C296.454 382.722 303.613 377.605 309.746 371.448C311.706 369.48 313.688 367.078 313.51 364.305C313.378 362.241 312.067 360.477 311.051 358.675C308.473 354.106 302.946 344.78 302.114 339.599C299.512 323.376 295.071 305.38 291.737 289.292C290.288 282.298 287.899 277.404 285.195 270.793C278.995 255.635 273.305 245.349 258.123 239.209C250.558 236.151 243.47 236.126 235.451 234.622C235.097 238.861 234.992 240.834 232.724 244.614C232.227 245.444 231.138 245.696 230.332 245.16C221.832 239.523 216.007 237.424 205.749 234.419C202.287 234.886 196.504 237.718 194.128 239.92C186.989 246.536 183.994 256.775 184.461 266.497C184.929 276.22 188.496 285.534 192.816 294.257C197.136 302.979 202.25 311.309 206.149 320.228C215.065 340.62 217.299 363.468 215.517 385.654C230.542 393.632 248.155 396.642 264.977 394.105C273.206 392.866 281.225 390.302 288.675 386.593Z" fill="#C6DBD7"/>
<path opacity="0.37" d="M305.186 354.402C303.068 354.412 301.012 354.615 298.956 355.138C296.756 355.699 294.608 356.453 292.513 357.324C288.346 359.056 284.383 361.23 280.514 363.541C273.411 367.781 266.557 372.678 258.222 374.113C256.113 374.476 253.963 374.598 251.825 374.5C250.429 374.436 249.009 374.383 247.622 374.195C245.098 373.853 241.913 373.204 240.112 371.24C239.492 370.564 239.014 369.553 239.384 368.647C239.863 367.47 240.762 366.404 241.534 365.409C243.006 363.51 244.621 361.726 245.861 359.66C247.04 357.693 248.077 355.621 248.845 353.458C249.563 351.436 250.165 349.086 249.617 346.948C249.06 344.781 247.203 343.636 245.081 343.348C242.852 343.044 240.894 343.646 238.829 344.415C236.448 345.301 234.1 346.299 231.639 346.955C229.542 347.513 227.063 347.955 225.011 346.994C222.789 345.953 221.597 343.233 221.504 340.884C221.438 339.257 222.13 337.85 223.488 336.941C225.095 335.866 227.108 335.453 228.997 335.21C231.364 334.906 233.765 334.887 236.146 334.939C238.455 334.989 240.761 335.13 243.067 335.249C244.841 335.341 246.645 335.473 248.421 335.332C250.684 335.15 253.151 333.878 254.248 331.824C255.73 329.047 253.899 326.222 251.513 324.715C250.147 323.851 248.448 323.478 246.903 323.082C244.606 322.493 242.29 321.988 239.992 321.401C237.552 320.779 235.102 320.099 232.78 319.113C231.055 318.38 229.121 317.429 228.002 315.856C226.898 314.305 227.04 312.137 228.578 310.933C230.67 309.297 233.768 308.756 235.2 306.341C236.811 303.625 237.06 300.117 237.135 297.036C237.214 293.802 236.944 290.578 236.514 287.376C235.424 279.287 233.539 271.251 230.542 263.647C227.944 257.054 224.452 250.933 219.197 246.099C214.486 241.766 208.78 238.571 202.686 236.642C201.997 236.424 201.3 236.225 200.6 236.039C202.446 235.232 204.305 234.618 205.756 234.423C216.014 237.428 221.839 239.526 230.339 245.164C231.146 245.698 232.234 245.448 232.731 244.618C234.998 240.838 235.103 238.866 235.458 234.626C243.478 236.129 250.566 236.154 258.13 239.213C273.313 245.351 279.003 255.638 285.202 270.796C287.905 277.407 290.295 282.302 291.745 289.295C295.079 305.384 299.519 323.379 302.122 339.603C302.743 343.479 305.995 349.676 308.673 354.464C307.5 354.437 306.335 354.398 305.186 354.402Z" fill="#C6DBD7"/>
<path d="M361.242 313.342L270.818 351.733L227.213 242.962L317.201 200.463L361.242 313.342Z" fill="#DC9E56"/>
<path d="M361.243 313.342L407 307.135L328.683 340.363L270.818 351.733L361.243 313.342Z" fill="#B5721E"/>
<path d="M246.906 318.499C247.217 311.656 249.15 299.555 258.31 301.146C268.69 302.949 279.061 306.825 289.209 309.654C294.425 311.107 299.677 312.568 305.07 313.044C310.465 313.521 316.068 312.96 320.912 310.541C322.634 309.681 324.237 308.601 325.931 307.687C328.428 306.342 331.087 305.38 333.819 304.619C335.147 304.405 336.474 304.182 337.804 303.97C340.305 303.57 342.84 303.409 345.345 303.056C346.286 302.924 347.16 303.582 347.256 304.526C347.309 305.059 347.215 305.621 346.996 306.109C346.533 307.139 345.63 307.901 344.705 308.55C342.258 310.265 339.44 311.449 336.499 311.987C335.691 312.135 334.951 312.602 334.526 313.306C333.271 315.376 335.724 317.118 337.744 317.851C341.227 319.115 344.797 320.142 348.419 320.923C350.021 321.268 351.707 321.598 352.835 322.899C353.498 323.664 353.778 324.734 353.382 325.665C352.73 327.2 350.789 327.376 349.18 327.365L340.874 327.315C342.584 328.133 344.48 328.562 346.376 328.56C347.127 328.559 348.001 328.54 348.407 329.248C348.689 329.738 348.573 330.357 348.215 330.796C347.585 331.57 346.589 331.715 345.654 331.834C344.445 331.991 343.235 332.146 342.025 332.301C342.751 332.367 343.235 333.507 342.808 334.217C342.32 335.028 341.285 335.289 340.353 335.447C338.589 335.747 336.808 335.931 335.022 336.007C335.405 336.057 336.211 336.575 336.35 336.971C336.476 337.325 336.513 337.735 336.084 337.963C333.314 339.433 328.393 338.943 325.502 337.73C322.61 336.516 320.034 334.653 317.187 333.337C309.232 329.659 300.034 330.551 291.284 331.059C278.087 331.825 264.551 331.487 252.107 327.027C250.808 326.56 249.479 326.022 248.531 325.018C246.953 323.341 246.801 320.799 246.906 318.499Z" fill="#B45650"/>
<path d="M353.32 325.79C352.459 325.187 351.532 324.675 350.568 324.245C346.406 322.386 341.845 321.774 337.625 320.104C335.332 319.195 332.988 317.808 332.432 315.214C331.909 312.769 334.1 311.26 336.008 310.305C339.331 308.64 342.97 307.717 346.147 305.734C346.521 305.501 346.898 305.248 347.265 304.977C347.246 305.367 347.156 305.758 346.997 306.11C346.534 307.14 345.632 307.902 344.706 308.551C342.26 310.267 339.441 311.451 336.501 311.988C335.692 312.136 334.953 312.604 334.527 313.307C333.273 315.377 335.725 317.119 337.745 317.852C341.228 319.116 344.798 320.143 348.421 320.924C350.021 321.269 351.708 321.599 352.836 322.9C353.499 323.665 353.779 324.735 353.383 325.666C353.364 325.71 353.341 325.748 353.32 325.79Z" fill="#EAC2B2"/>
<path d="M336.387 335.927C335.703 335.775 335.027 335.584 334.367 335.327C333.584 335.02 332.713 334.634 332.12 334.019C332.027 333.922 331.674 333.574 331.743 333.404C331.814 333.226 332.482 333.233 332.659 333.235C333.682 333.251 334.669 333.595 335.672 333.759C336.258 333.854 336.853 333.896 337.441 333.985C338.761 334.188 340.103 334.41 341.442 334.365C341.876 334.35 342.368 334.3 342.828 334.173C342.821 334.187 342.819 334.202 342.81 334.216C342.323 335.026 341.288 335.287 340.355 335.446C339.04 335.67 337.717 335.829 336.387 335.927Z" fill="#EAC2B2"/>
<path d="M337.41 330.838C337.019 330.68 335.501 330.158 335.507 329.599C335.514 328.865 337.785 329.353 338.127 329.411C338.896 329.543 339.657 329.662 340.434 329.724C342.216 329.866 344.02 329.941 345.804 329.816C346.452 329.77 347.603 329.717 348.464 329.363C348.669 329.832 348.55 330.39 348.219 330.795C347.589 331.569 346.593 331.714 345.658 331.833C344.851 331.937 344.045 332.041 343.238 332.144C342.43 332.071 341.624 331.97 340.824 331.814C339.658 331.589 338.511 331.28 337.41 330.838Z" fill="#EAC2B2"/>
<path d="M246.906 318.499C247.217 311.656 249.15 299.555 258.31 301.146C261.254 301.658 264.196 302.338 267.134 303.112C266.07 304.727 265.02 306.348 264.236 308.122C262.97 310.99 262.678 314.135 263.908 317.074C266.311 322.813 272.839 325.021 278.434 326.186C282.565 327.046 286.777 327.528 290.993 327.681C293.095 327.758 295.201 327.753 297.304 327.674C299.372 327.597 301.432 327.401 303.501 327.344C307.314 327.238 311.165 327.535 314.793 328.782C316.622 329.41 318.432 330.266 320.01 331.393C321.431 332.409 322.658 333.667 323.999 334.782C325.423 335.965 326.934 336.84 328.637 337.561C329.636 337.983 330.661 338.434 331.702 338.823C329.635 339.034 327.445 338.545 325.502 337.73C322.61 336.516 320.034 334.653 317.187 333.337C309.232 329.659 300.034 330.551 291.284 331.059C278.087 331.825 264.551 331.487 252.107 327.027C250.808 326.56 249.479 326.022 248.531 325.018C246.953 323.341 246.801 320.799 246.906 318.499Z" fill="#EAC2B2"/>
<path d="M370.476 327.335C370.144 327.254 369.838 327.09 369.538 326.925C368.4 326.305 367.253 325.678 366.262 324.843C365.982 324.607 365.709 324.347 365.541 324.022C365.082 323.132 365.672 321.882 366.652 321.672C367.26 321.542 367.884 321.765 368.454 322.012C369.395 322.421 370.271 322.923 371.144 323.457C371.616 323.746 372.32 323.987 372.649 324.457C373.636 325.866 371.995 327.703 370.476 327.335Z" fill="#B45650"/>
<path d="M371.159 325.685C370.247 325.567 369.39 325.065 368.657 324.537C367.933 324.016 367.229 323.365 366.751 322.606C366.58 322.335 366.456 322.056 366.371 321.773C366.461 321.732 366.553 321.693 366.651 321.673C367.259 321.543 367.883 321.766 368.453 322.013C369.394 322.422 370.27 322.924 371.143 323.458C371.615 323.748 372.318 323.988 372.648 324.458C372.782 324.651 372.865 324.852 372.907 325.054C372.633 325.614 371.696 325.754 371.159 325.685Z" fill="#EAC2B2"/>
<path d="M206.306 247.765C222.573 256.006 231.775 276.705 239.175 290.422C241.492 294.717 250.975 296.255 261.515 300.439C255.633 308.827 252.321 318.991 252.13 329.235C246.762 328.997 241.344 328.348 236.135 326.995C219.954 322.789 209.004 311.225 201.271 296.889C196.508 288.056 192.024 278.149 189.788 268.332C188.563 262.96 187.811 254.916 191.35 250.04C195.34 244.539 201.048 245.101 206.306 247.765Z" fill="#D6E5E2"/>
<path d="M192.678 258.814C192.734 258.727 192.784 258.637 192.844 258.552C194.079 256.775 195.994 255.699 198.082 255.225C202.321 254.263 206.609 256.728 209.578 259.539C212.888 262.675 215.42 266.602 217.414 270.67C218.899 273.7 220.202 276.865 221.118 280.113C221.596 281.808 221.977 283.547 222.087 285.308C222.181 286.816 222.111 288.451 221.418 289.827C220.887 290.881 219.981 291.544 219.035 292.211C217.958 292.969 216.838 293.687 215.856 294.568C215.097 295.248 214.277 296.157 214.308 297.241C214.345 298.541 215.599 299.408 216.637 299.953C217.901 300.617 219.085 300.828 220.508 300.694C222.027 300.552 223.517 300.194 225.011 299.905C226.786 299.562 230.58 298.84 230.176 301.868C230.039 302.897 229.214 303.719 228.495 304.401C227.722 305.134 226.866 305.798 226.191 306.628C225.572 307.39 225.154 308.301 225.399 309.295C225.724 310.609 227.004 311.726 228.137 312.362C231.137 314.044 234.88 313.201 237.785 311.742C240.743 310.255 242.863 307.821 245.012 305.379C247.178 302.916 249.387 300.211 252.289 298.574C252.551 298.426 252.822 298.293 253.095 298.171C254.846 298.781 256.682 299.441 258.569 300.188C253.203 307.804 250.182 317.035 250.007 326.335C245.109 326.118 240.167 325.53 235.415 324.301C220.654 320.483 210.665 309.982 203.612 296.965C199.267 288.945 195.176 279.948 193.136 271.034C192.341 267.551 191.771 262.839 192.678 258.814Z" fill="#E2F2EF"/>
<path d="M383.745 605.827C366.701 607.894 349.237 603.915 331.937 603.896C328.476 603.893 324.955 604.042 321.614 603.132C321.233 603.028 320.828 602.891 320.602 602.567C320.392 602.265 320.386 601.87 320.389 601.503C320.424 597.931 320.561 594.358 320.799 590.793C321.006 587.713 320.699 586.361 321.622 583.314C322.539 580.287 325.31 583.176 325.663 583.441C329.928 586.647 331.96 585.724 335.556 584.669C339.291 583.573 342.695 581.527 345.706 579.062C348.049 577.144 350.731 574.803 353.682 575.483C355.555 575.915 356.921 577.479 358.141 578.966C360.681 582.062 363.222 585.247 366.519 587.52C370.115 589.999 374.378 591.212 378.66 591.827C380.688 592.118 382.734 592.266 384.78 592.361C386.683 592.451 388.67 592.708 390.508 593.175C393.191 593.858 394 596.561 394.443 598.83C394.611 599.691 394.739 600.59 394.51 601.436C393.926 603.591 391.405 604.491 389.217 604.94C387.4 605.313 385.575 605.605 383.745 605.827Z" fill="#358E7D"/>
<path d="M329.773 597.189C336.297 598.379 342.837 599.344 349.444 599.926C356.096 600.512 362.767 600.839 369.435 601.199C372.724 601.377 375.999 601.651 379.293 601.418C382.45 601.194 385.574 600.658 388.686 600.103C390.415 599.796 392.149 599.466 393.833 598.96C394.013 598.905 394.219 598.845 394.435 598.778C394.438 598.795 394.442 598.813 394.445 598.83C394.614 599.691 394.741 600.59 394.512 601.436C393.928 603.591 391.407 604.491 389.219 604.939C387.401 605.313 385.575 605.605 383.746 605.827C366.702 607.894 349.237 603.915 331.938 603.896C328.477 603.893 324.956 604.042 321.615 603.132C321.234 603.028 320.829 602.891 320.602 602.567C320.393 602.265 320.387 601.87 320.39 601.503C320.411 599.375 320.473 597.245 320.566 595.119C323.591 596.022 326.721 596.632 329.773 597.189Z" fill="#D1CCED"/>
<path d="M172.373 573.204C174.489 574.492 175.868 576.915 178.208 577.725C179.019 578.006 180.007 578.144 180.43 578.892C180.602 579.196 180.644 579.555 180.671 579.902C181.006 584.327 179.261 588.827 180.259 593.15C180.718 595.137 181.751 597.103 181.363 599.105C181.024 600.859 179.61 602.259 177.99 603.015C176.371 603.771 174.555 603.978 172.774 604.112C167.406 604.517 161.994 604.353 156.661 603.623C153.529 603.194 149.996 602.264 148.581 599.435C147.301 596.873 148.32 593.743 149.852 591.324C151.385 588.903 153.43 586.764 154.426 584.079C155.21 581.968 155.299 579.628 156.26 577.592C157.682 574.583 160.511 574.705 163.213 573.732C166.295 572.62 169.231 571.293 172.373 573.204Z" fill="#358E7D"/>
<path d="M149.701 596.4C150.882 597.057 152.209 597.369 153.547 597.486C155.372 597.646 157.181 597.312 159.005 597.392C163.495 597.586 167.742 599.338 172.217 599.672C175.248 599.897 178.199 599.359 180.837 597.801C181.026 597.689 181.212 597.567 181.396 597.442C181.465 597.995 181.47 598.549 181.362 599.108C181.023 600.862 179.608 602.261 177.989 603.017C176.37 603.773 174.554 603.98 172.772 604.114C167.404 604.52 161.993 604.355 156.66 603.625C153.527 603.196 149.994 602.266 148.58 599.438C147.929 598.136 147.874 596.686 148.177 595.257C148.623 595.693 149.128 596.08 149.701 596.4Z" fill="#D1CCED"/>
<path d="M374.841 325.93C374.181 326.005 373.529 325.771 372.917 325.514C371.368 324.863 369.892 324.04 368.523 323.065C368.155 322.802 367.78 322.511 367.597 322.099C367.191 321.188 367.968 320.092 368.929 319.824C369.889 319.555 370.912 319.886 371.819 320.297C372.846 320.763 373.822 321.339 374.727 322.012C374.593 321.911 375.297 321.488 375.356 321.469C375.717 321.35 376.066 321.438 376.394 321.609C376.888 321.866 377.235 322.264 377.26 322.828C377.318 324.184 376.227 325.771 374.841 325.93Z" fill="#B45650"/>
<path d="M376.984 323.788C376.631 324.169 376.219 324.213 375.724 324.122C374.616 323.918 373.544 323.543 372.531 323.056C371.528 322.576 370.555 321.999 369.684 321.305C369.163 320.888 368.793 320.45 368.715 319.907C368.785 319.877 368.855 319.844 368.927 319.824C369.887 319.555 370.91 319.886 371.818 320.297C372.844 320.763 373.821 321.339 374.726 322.012C374.591 321.911 375.296 321.488 375.354 321.469C375.716 321.35 376.065 321.438 376.393 321.609C376.886 321.866 377.233 322.264 377.258 322.828C377.269 323.065 377.242 323.308 377.187 323.55C377.112 323.646 377.038 323.731 376.984 323.788Z" fill="#EAC2B2"/>
<path d="M381.62 322.296C381.429 322.852 381.127 323.393 380.646 323.731C380.067 324.137 379.3 324.195 378.608 324.046C377.917 323.897 377.282 323.562 376.656 323.23C375.937 322.85 375.218 322.468 374.499 322.088C373.969 321.806 373.431 321.52 373 321.102C372.57 320.683 372.255 320.107 372.287 319.509C372.328 318.755 372.923 318.111 373.628 317.839C374.331 317.567 375.121 317.614 375.857 317.775C376.876 317.999 377.846 318.439 378.687 319.057C378.45 318.883 379.977 318.251 380.156 318.254C380.696 318.265 381.329 318.602 381.638 319.058C382.195 319.881 381.913 321.44 381.62 322.296Z" fill="#B45650"/>
<path d="M380.765 321.775C379.814 321.959 378.668 321.599 377.768 321.263C376.745 320.88 375.665 320.342 374.871 319.577C374.452 319.171 373.967 318.67 373.998 318.047C374.004 317.937 374.028 317.829 374.05 317.72C374.639 317.595 375.266 317.646 375.859 317.777C376.877 318.002 377.848 318.442 378.688 319.059C378.451 318.885 379.978 318.253 380.157 318.257C380.697 318.267 381.33 318.605 381.639 319.06C382.015 319.614 382.005 320.5 381.873 321.282C381.543 321.545 381.005 321.73 380.765 321.775Z" fill="#EAC2B2"/>
<path d="M378.756 317.442C379.361 316.945 380.167 316.742 380.949 316.741C381.47 316.74 383.186 317.303 383.186 317.303L385.473 316.263C385.479 316.276 385.486 316.286 385.492 316.3C386.416 318.536 385.876 320.601 384.394 321.216C384.097 321.339 383.776 321.39 383.457 321.419C381.886 321.558 380.272 321.14 378.967 320.255C378.611 320.013 378.263 319.719 378.108 319.317C377.856 318.656 378.211 317.891 378.756 317.442Z" fill="#B45650"/>
<path d="M380.949 316.741C381.055 316.741 381.16 316.753 381.266 316.766L383.186 317.303L384.695 316.617C384.8 316.659 384.907 316.727 385.024 316.835C385.179 317.603 385.178 318.362 384.436 318.889C383.785 319.351 382.872 319.353 382.112 319.25C380.821 319.076 379.628 318.402 378.81 317.408C379.409 316.939 380.188 316.742 380.949 316.741Z" fill="#EAC2B2"/>
<path d="M317.201 200.463L361.242 313.342L407 307.135L366.129 200.471L317.201 200.463Z" fill="#FFC677"/>
<g opacity="0.54">
<path d="M225.73 390.464C224.588 405.954 222.938 421.458 218.331 436.349C215.307 446.569 211.407 456.541 206.789 466.146C197.763 484.439 183.437 499.812 176.277 519.109C170.506 533.598 167.109 548.864 164.147 564.124C164.996 560.331 165.858 556.542 166.75 552.76C169.919 539.577 173.628 526.413 179.35 514.086C186.465 498.029 198.33 484.756 206.372 469.194C211.575 458.743 215.918 447.804 219.098 436.569C223.541 421.588 225.023 405.997 225.73 390.464Z" fill="#BCD0DD"/>
</g>
<g opacity="0.6">
<path d="M287.491 420.23C305.141 433.685 321.556 448.769 336.336 465.32C338.756 468.072 340.987 471.046 342.045 474.515C343.649 479.737 343.318 485.428 342.983 490.854C341.891 503.789 337.958 516.207 335.841 528.993C334.584 536.313 334.197 543.78 334.572 551.192C334.869 557.725 335.39 566.786 335.74 573.378C335.61 565.395 334.645 547.767 335.228 540.101C335.742 532.725 337.259 525.478 338.874 518.274C341.7 505.491 346.702 486.926 342.989 474.213C341.864 470.586 339.525 467.488 337.045 464.696C322.174 448.161 305.534 433.222 287.491 420.23Z" fill="#BCD0DD"/>
</g>
<path opacity="0.58" d="M232.077 479.585C229.375 484.503 225.967 489.386 220.897 491.792C215.827 494.198 208.766 493.172 206.016 488.279C204.467 485.523 204.542 482.08 205.533 479.078C206.524 476.074 208.34 473.422 210.188 470.856C219.433 458.022 230.341 445.957 244.207 438.347C245.896 437.42 248.102 436.595 249.621 437.782C251.304 439.096 250.755 441.737 249.975 443.725C247.489 450.064 244.202 455.893 240.497 461.587C236.917 467.09 235.276 473.761 232.077 479.585Z" fill="#80AAC9"/>
<path opacity="0.58" d="M338.817 458.205C341.811 462.444 346.841 465.314 352.03 465.224C354.65 465.178 357.454 464.251 358.875 462.049C360.595 459.388 361.03 455.467 360.111 452.435C358.756 447.97 355.971 443.816 352.868 440.33C349.559 436.612 340.922 432.873 337.235 437.972C333.275 443.448 335.223 453.116 338.817 458.205Z" fill="#80AAC9"/>
<path d="M319.069 235.42L293.44 224.408L282.429 250.037L292.201 246.138L303.283 273.917L320.379 267.096L309.297 239.319L319.069 235.42Z" fill="#C18F8F"/>
<path d="M319.112 278.561L317.117 273.563L318.326 273.08C318.746 272.913 319.107 272.903 319.408 273.052C319.711 273.201 319.972 273.554 320.195 274.112L320.965 276.042C321.188 276.6 321.242 277.036 321.124 277.353C321.008 277.669 320.741 277.91 320.32 278.078L319.112 278.561ZM320.127 288.533L322.683 287.514L320.04 280.887L321.249 280.405C322.52 279.898 323.338 279.176 323.702 278.24C324.065 277.304 323.984 276.179 323.458 274.861L322.818 273.257C322.292 271.94 321.576 271.067 320.668 270.639C319.761 270.211 318.671 270.25 317.4 270.757L313.634 272.259L320.127 288.533ZM314.592 291.01C315.831 290.515 316.637 289.785 317.006 288.82C317.376 287.856 317.299 286.715 316.773 285.397L311.82 272.982L309.356 273.965L314.383 286.566C314.606 287.124 314.653 287.572 314.526 287.909C314.402 288.247 314.13 288.498 313.71 288.667C313.291 288.834 312.92 288.838 312.598 288.679C312.274 288.521 312 288.162 311.777 287.604L306.75 275.003L304.193 276.023L309.146 288.438C309.672 289.755 310.401 290.636 311.333 291.082C312.267 291.529 313.351 291.504 314.592 291.01Z" fill="#C18F8F"/>
</g>
<defs>
<clipPath id="clip0_2122_19281">
<rect width="1077.26" height="647" fill="white"/>
</clipPath>
</defs>
</svg>
