<svg width="1078" height="647" viewBox="0 0 1078 647" fill="none" xmlns="http://www.w3.org/2000/svg">
<g clip-path="url(#clip0_2122_18908)">
<path d="M1005.24 615.878H28.9864C26.1972 615.878 23.9363 613.617 23.9363 610.828C23.9363 608.039 26.1972 605.778 28.9861 605.778H1005.24C1008.03 605.778 1010.29 608.039 1010.29 610.828C1010.29 613.617 1008.03 615.878 1005.24 615.878Z" fill="#252952"/>
<path d="M678.037 156.409H551.126C541.116 156.409 533 148.294 533 138.283V84.1267C533 74.1156 541.116 66 551.126 66H678.037C688.048 66 696.163 74.1153 696.163 84.1267V138.283C696.163 148.294 688.048 156.409 678.037 156.409Z" fill="#8893F8"/>
<path d="M673.057 152.358V186.016C673.057 188.717 669.422 189.588 668.198 187.179L650.508 152.358H673.057Z" fill="#8893F8"/>
<path d="M674.887 94.2558H555.804C551.224 94.2558 547.512 90.5434 547.512 85.9632C547.512 81.3838 551.224 77.671 555.804 77.671H674.887C679.467 77.671 683.18 81.3838 683.18 85.9632C683.18 90.543 679.468 94.2558 674.887 94.2558Z" fill="#DBDEFF"/>
<path d="M674.887 120.56H555.804C551.224 120.56 547.512 116.847 547.512 112.268V112.268C547.512 107.688 551.224 103.975 555.804 103.975H674.887C679.467 103.975 683.18 107.688 683.18 112.268V112.268C683.18 116.847 679.468 120.56 674.887 120.56Z" fill="#DBDEFF"/>
<path d="M676.105 146.864H599.685C595.778 146.864 592.61 143.697 592.61 139.79V137.355C592.61 133.448 595.778 130.28 599.685 130.28H676.105C680.012 130.28 683.18 133.448 683.18 137.355V139.79C683.18 143.697 680.012 146.864 676.105 146.864Z" fill="#DBDEFF"/>
<path d="M914.932 430.876C914.921 429.578 914.909 428.403 914.901 427.36C914.869 423.819 913.574 420.413 911.252 417.74C883.679 386.056 767.88 247.742 730.855 212.876C719.38 201.967 699.494 199.016 666.658 199.016C666.658 199.016 137.174 199.016 117.176 199.016C82.2938 199.016 69.7954 217.875 69.7954 257.755C69.7954 286.273 72.4099 484.405 72.4099 484.405C72.4099 484.405 78.3086 554.399 90.5512 558.963C93.0483 559.893 902.438 564.921 907.779 556.059C913.12 547.197 914.805 490.226 914.805 490.226C914.865 485.41 914.913 480.639 914.945 475.987C915.076 457.359 915.005 440.654 914.932 430.876Z" fill="#B2B9FD"/>
<path d="M914.978 483.36C914.978 483.36 915.683 549.331 911.249 555.592C906.222 560.925 898.538 564.263 890.184 564.741C881.416 565.945 812.579 565.383 812.579 565.383C812.579 565.383 102.344 560.086 90.5516 558.962C78.7597 557.838 74.1237 550.214 73.7203 539.299C73.7203 536.972 72.6119 500.615 72.4104 479.909L914.978 483.36Z" fill="#343D9A"/>
<path d="M818.339 582.85C848.91 552.278 848.91 502.711 818.339 472.139C787.767 441.567 738.2 441.567 707.628 472.139C677.056 502.711 677.056 552.278 707.628 582.85C738.2 613.422 787.767 613.422 818.339 582.85Z" fill="#4D5DFA"/>
<path d="M772.155 583.831C803.274 578.78 824.406 549.46 819.356 518.341C814.306 487.223 784.985 466.09 753.866 471.141C722.748 476.191 701.615 505.512 706.666 536.63C711.716 567.748 741.037 588.881 772.155 583.831Z" fill="#B8C6F2"/>
<path d="M762.992 558.267C779.988 558.267 793.766 544.489 793.766 527.493C793.766 510.497 779.988 496.719 762.992 496.719C745.996 496.719 732.218 510.497 732.218 527.493C732.218 544.489 745.996 558.267 762.992 558.267Z" fill="#98B0F2"/>
<path d="M239.028 582.846C269.6 552.274 269.6 502.707 239.028 472.135C208.457 441.563 158.89 441.563 128.318 472.135C97.7458 502.707 97.7458 552.274 128.318 582.846C158.89 613.418 208.457 613.418 239.028 582.846Z" fill="#4D5DFA"/>
<path d="M183.678 584.574C215.203 584.574 240.759 559.018 240.759 527.493C240.759 495.968 215.203 470.411 183.678 470.411C152.153 470.411 126.597 495.968 126.597 527.493C126.597 559.018 152.153 584.574 183.678 584.574Z" fill="#B8C6F2"/>
<path d="M183.678 558.267C200.674 558.267 214.452 544.489 214.452 527.493C214.452 510.496 200.674 496.718 183.678 496.718C166.682 496.718 152.904 510.496 152.904 527.493C152.904 544.489 166.682 558.267 183.678 558.267Z" fill="#98B0F2"/>
<path d="M779.486 363.435H622.5C617.65 363.435 613.718 359.503 613.718 354.653V250.332C613.718 242.356 620.183 235.891 628.158 235.891H682.298C696.812 235.891 710.462 242.784 719.076 254.464L787.6 347.368C792.51 354.024 787.756 363.435 779.486 363.435Z" fill="#616FFA"/>
<path d="M802.742 348.02C802.742 360.498 789.929 370.613 774.125 370.613C758.32 370.613 745.507 360.498 745.507 348.02C745.507 335.543 758.32 325.428 774.125 325.428C789.929 325.428 802.742 335.543 802.742 348.02Z" fill="#98B0F2"/>
<path d="M914.945 475.987H906.729C894.27 475.987 884.173 465.886 884.173 453.431C884.173 447.202 886.698 441.562 890.777 437.484C894.859 433.401 900.499 430.876 906.729 430.876H914.933C915.005 440.654 915.076 457.359 914.945 475.987Z" fill="#FAAF16"/>
<path d="M313.014 497.333H544.706C551.647 497.333 557.273 491.706 557.273 484.766V233.403C557.273 226.462 551.647 220.837 544.706 220.837H313.014C306.074 220.837 300.448 226.463 300.448 233.403V484.766C300.448 491.706 306.074 497.333 313.014 497.333Z" fill="#272A66"/>
<path d="M496.288 273.671H385.302V496.718H496.288V273.671Z" fill="#313480"/>
<path d="M452.404 325.428H342.075V496.718H452.404V325.428Z" fill="#3A3D96"/>
<path d="M545.467 373.902H429.75V496.718H545.467V373.902Z" fill="#4043A6"/>
<path d="M117.212 496.718H348.904C355.845 496.718 361.471 491.092 361.471 484.152V232.789C361.471 225.849 355.845 220.223 348.904 220.223H117.212C110.272 220.223 104.646 225.849 104.646 232.789V484.152C104.646 491.092 110.272 496.718 117.212 496.718Z" fill="#8893F8"/>
<path d="M361.471 405.386H104.646V430.876H361.471V405.386Z" fill="#C9CEFD"/>
<path d="M316.314 363.435H144.051C133.883 363.435 125.641 355.193 125.641 345.025V254.302C125.641 244.134 133.883 235.891 144.051 235.891H316.314C326.482 235.891 334.724 244.134 334.724 254.302V345.025C334.724 355.193 326.482 363.435 316.314 363.435Z" fill="#616FFA"/>
<path d="M507.428 455.211H385.959V605.778H507.428V455.211Z" fill="#DE8914"/>
<path d="M410.986 419.55H286.657V605.778H410.986V419.55Z" fill="#FF9A16"/>
<path d="M460.72 478.817H333.76V605.778H460.72V478.817Z" fill="#FAAF16"/>
<path d="M444.233 499.631H385.302V523.764H444.233V499.631Z" fill="#FAC352"/>
<path d="M364.471 520.288L341.966 532.744L354.421 555.249L376.927 542.794L364.471 520.288Z" fill="#FF9A16"/>
<path d="M361.471 550.742C361.471 558.9 368.085 565.514 376.243 565.514C384.402 565.514 391.015 558.9 391.015 550.742C391.015 542.583 384.402 535.969 376.243 535.969C368.085 535.969 361.471 542.583 361.471 550.742Z" fill="#FAC352"/>
<path d="M322 109.911C322.957 88.5323 340.594 71.4909 362.21 71.4909C369.509 71.4909 376.353 73.4345 382.255 76.8293L382.256 76.8296C382.988 66.3081 391.753 58 402.461 58C412.062 58 420.103 64.6809 422.19 73.6474C424.752 73.0295 427.424 72.7037 430.175 72.7037C444.651 72.7037 457.018 81.7404 461.938 94.4821C464.828 93.3391 467.977 92.7099 471.274 92.7099C479.188 92.7099 486.255 96.3296 490.912 102.005C493.501 105.16 491.197 109.911 487.116 109.911H322Z" fill="#C9CEFD"/>
<path d="M1027.76 138.338C1027.76 138.559 1027.76 138.778 1027.75 138.996H951.802C953.95 131.588 960.787 126.171 968.89 126.171C970.746 126.171 972.534 126.455 974.214 126.98C978.568 117.191 988.378 110.363 999.784 110.363C1015.24 110.363 1027.76 122.889 1027.76 138.338Z" fill="#C9CEFD"/>
<path d="M894.08 187.9C894.08 188.19 894.075 188.48 894.062 188.768H763.01C762.997 188.48 762.992 188.19 762.992 187.9C762.992 175.096 773.369 164.718 786.17 164.718C788.589 164.718 790.918 165.089 793.107 165.775C798.78 153.018 811.563 144.125 826.424 144.125C841.852 144.125 855.039 153.71 860.359 167.247C863.523 165.63 867.105 164.718 870.9 164.718C883.702 164.718 894.08 175.096 894.08 187.9Z" fill="#C9CEFD"/>
<path d="M148.2 159.283C148.2 159.574 148.195 159.864 148.182 160.152H17.1303C17.1173 159.864 17.1118 159.574 17.1118 159.283C17.1118 146.48 27.49 136.102 40.2909 136.102C42.7088 136.102 45.0383 136.473 47.2277 137.159C52.9 124.402 65.6831 115.509 80.5437 115.509C95.9721 115.509 109.16 125.094 114.479 138.631C117.643 137.014 121.225 136.102 125.021 136.102C137.822 136.102 148.2 146.48 148.2 159.283Z" fill="#C9CEFD"/>
<path d="M746.884 226.072H746.871L735.414 226.115L732.819 253.176L746.193 260.238L760.456 253.255L758.151 226.115L746.884 226.072Z" fill="#F37A50"/>
<path d="M769.654 206.772C767.047 226.395 752.44 240.644 737.027 238.597C721.615 236.55 711.234 218.982 713.841 199.358C716.447 179.735 731.054 165.486 746.466 167.533C761.879 169.58 772.26 187.148 769.654 206.772Z" fill="#F37A50"/>
<path d="M732.043 207.199C729.208 210.892 725.634 215.387 725.634 215.387C725.634 215.387 726.672 219.67 732.134 220.255C729.912 219.075 727.774 217.297 729.014 214.303C730.254 211.309 732.043 207.199 732.043 207.199Z" fill="#DE623C"/>
<path d="M776.011 190.996C777.683 172.298 760.49 166.159 760.49 166.159C760.49 166.159 764.341 164.804 763.407 159.152C760.691 160.821 757.368 161.594 754.195 161.28C732.818 159.162 719.362 162.677 721.489 171.056C722.246 174.037 708.379 175.565 714.555 195.347C715.877 193.011 717.064 184.244 721.221 182.313C725.393 180.375 722.918 187.217 732.359 186.153C741.886 185.08 748.088 181.127 755.029 184.891C760.578 188.301 767.519 211.065 767.201 212.622C767.928 209.052 775.276 199.212 776.011 190.996Z" fill="#201D40"/>
<path d="M713.69 210.072C713.69 210.072 715.511 220.736 717.839 223.585C718.343 218.995 728.413 221.883 732.789 222.267C740.714 222.962 748.758 215.93 751.428 226.337C761.519 226.922 765.192 204.707 765.192 204.707C771.4 226.907 760.286 243.1 735.82 245.356C719.701 246.842 710.773 226.27 713.69 210.072Z" fill="#201D40"/>
<path d="M743.473 206.037C744.974 206.138 746.273 205.002 746.374 203.501C746.475 202 745.34 200.701 743.838 200.6C742.337 200.499 741.038 201.635 740.937 203.136C740.836 204.637 741.972 205.936 743.473 206.037Z" fill="black"/>
<path d="M720.977 205.207C722.479 205.308 723.777 204.172 723.878 202.671C723.979 201.17 722.844 199.871 721.342 199.77C719.841 199.669 718.543 200.805 718.442 202.306C718.34 203.808 719.476 205.106 720.977 205.207Z" fill="black"/>
<path d="M716.452 199.52C716.912 199.551 717.377 199.345 717.657 198.937C718.429 197.814 719.316 197.17 720.294 197.021C721.983 196.765 723.557 197.987 723.573 197.999C724.157 198.459 725.006 198.363 725.469 197.782C725.932 197.2 725.841 196.355 725.262 195.889C725.162 195.809 722.784 193.925 719.919 194.344C718.159 194.602 716.649 195.632 715.43 197.406C715.007 198.02 715.163 198.862 715.778 199.285C715.985 199.427 716.218 199.504 716.452 199.52Z" fill="#201D40"/>
<path d="M749.618 201.691C749.913 201.711 750.218 201.634 750.48 201.451C751.092 201.024 751.243 200.182 750.817 199.569C749.193 197.238 747.312 195.902 745.227 195.599C742.536 195.207 740.564 196.751 740.481 196.817C739.898 197.283 739.802 198.133 740.268 198.716C740.732 199.297 741.576 199.394 742.158 198.937C742.201 198.906 743.369 198.045 744.872 198.279C746.176 198.482 747.43 199.436 748.599 201.114C748.842 201.465 749.222 201.664 749.618 201.691Z" fill="#201D40"/>
<path d="M765.45 204.797C762.078 208.006 761.472 212.844 764.097 215.605C766.723 218.365 771.585 218.001 774.958 214.794C778.331 211.585 778.937 206.747 776.312 203.986C773.686 201.226 768.824 201.589 765.45 204.797Z" fill="#F37A50"/>
<path d="M768.497 214.289C768.354 214.235 768.221 214.147 768.11 214.027C766.52 212.299 766.18 210.214 767.199 208.448C768.242 206.641 770.414 205.646 772.363 206.081C772.912 206.204 773.257 206.748 773.134 207.297C773.012 207.845 772.468 208.19 771.919 208.068C770.851 207.829 769.552 208.444 768.962 209.466C768.395 210.449 768.624 211.579 769.609 212.649C769.989 213.063 769.963 213.707 769.549 214.087C769.255 214.357 768.846 214.422 768.497 214.289Z" fill="#DE623C"/>
<path d="M741.609 225.324C741.721 224.623 741.564 223.956 740.859 224.046C739.067 224.274 736.105 224.59 733.274 224.613C730.444 224.635 727.476 224.367 725.681 224.168C724.974 224.089 724.808 224.762 724.951 225.457C725.546 228.339 728.814 231.553 733.153 231.519C737.491 231.484 741.19 227.935 741.609 225.324Z" fill="white"/>
<path d="M725.977 580.471C715.846 594.449 690.968 585.872 691.791 604.778H745.347C745.297 600.435 744.549 590.129 743.677 586.095L725.977 580.471Z" fill="black"/>
<path d="M782.58 580.471C772.45 594.449 747.572 585.872 748.395 604.778H801.951C801.901 600.435 801.153 590.129 800.28 586.094L782.58 580.471Z" fill="black"/>
<path d="M708.463 366.715C708.463 366.715 702.321 456.301 704.816 476.218C707.312 496.135 716.147 521.669 715.147 587.547C727.479 590.635 745.348 587.547 745.348 587.547C745.348 587.547 747.997 513.056 734.959 479.785C740.26 447.466 757.273 373.444 757.273 373.444L708.463 366.715Z" fill="#062440"/>
<path d="M731.807 369.164C731.807 369.164 744.21 469.738 750.281 488.815C756.353 507.891 761.636 521.866 772.628 586.764C785.302 587.398 803.607 587.005 803.607 587.005C803.607 587.005 801.951 506.599 782.211 487.878C781.543 455.105 785.403 369.809 785.403 369.809L731.807 369.164Z" fill="#2C2858"/>
<path d="M788.983 255.019C788.983 255.019 767.442 247.476 760.259 250.935C737.938 261.683 732.819 250.935 732.819 250.935C725.686 251.551 704.156 255.019 704.156 255.019C704.156 279.063 702.55 303.191 702.988 321.386C703.296 337.232 700.276 380.354 700.276 380.354C700.276 380.354 724.026 386.58 746.493 386.742C768.96 386.596 791.827 380.606 791.827 380.606C791.827 380.606 790.627 336.931 789.63 320.698C789.954 302.503 788.983 278.998 788.983 255.019Z" fill="#E62552"/>
<path d="M665.864 290.755C674.755 269.541 701.14 256.047 704.156 255.019L710.276 282.253C697.6 289.749 688.4 297.858 688.4 297.858C689.959 305.441 689.698 312.879 694.088 322.469C694.088 322.469 690.276 317.208 685.573 320.322C681 323.348 672.591 317.171 672.591 317.171C672.591 317.171 659.072 306.959 665.864 290.755Z" fill="#C4204A"/>
<path d="M670.818 344.366C670.664 344.413 670.51 344.444 670.356 344.46H669.85C668.923 344.361 668.098 343.727 667.804 342.782L644.1 266.359C644.053 266.205 644.022 266.051 644.006 265.896C643.995 265.794 644.001 265.695 644.003 265.595C644.004 265.534 643.997 265.473 644.003 265.413C644.008 265.359 644.024 265.308 644.033 265.256C644.177 264.387 644.784 263.628 645.682 263.347C645.827 263.302 645.977 263.268 646.133 263.25C646.308 263.231 646.479 263.233 646.648 263.25H706.319L730.231 344.46H670.777L670.818 344.366Z" fill="#80BC48"/>
<path d="M705.776 263.346C707.046 262.952 708.396 263.661 708.79 264.931L732.345 341.163L732.398 341.342C732.789 342.607 732.084 343.947 730.823 344.346L730.821 344.351C729.551 344.745 728.201 344.036 727.807 342.767L704.191 266.359C703.796 265.089 704.506 263.74 705.776 263.346Z" fill="#17962E"/>
<path d="M660.694 311.83C660.471 311.683 660.229 311.589 659.98 311.52C660.005 311.483 660.034 311.448 660.058 311.41C661.543 309.171 661.444 306.493 659.837 305.428C659.574 305.254 659.284 305.139 658.98 305.07C659.398 303.412 659.024 301.829 657.876 301.069C657.421 300.767 656.892 300.633 656.336 300.639C656.861 299.01 656.444 297.3 655.159 296.449C653.553 295.385 651.223 296.072 649.956 297.983C648.688 299.894 648.964 302.307 650.571 303.371C650.977 303.64 651.431 303.797 651.901 303.85C650.832 305.934 651.047 308.216 652.5 309.178C652.764 309.353 653.054 309.468 653.357 309.537C652.94 311.195 653.313 312.778 654.461 313.538C654.884 313.818 655.37 313.955 655.883 313.969C655.351 315.394 655.689 316.929 656.818 317.677C658.175 318.576 660.143 317.996 661.213 316.381C662.284 314.767 662.051 312.729 660.694 311.83Z" fill="#F37A50"/>
<path d="M734.055 307L728.615 303.848C728.615 303.848 727.109 296.133 718.374 295.947C719.375 299.185 720.815 303.848 720.815 303.848C720.815 303.848 716.516 307.186 706.319 301.474C696.351 299.234 700.609 306.502 697.305 307.023C692.43 307.793 700.859 317.374 710.812 318.839C723.691 320.736 725.219 318.099 725.219 318.099L732.506 320.646L734.055 307Z" fill="#F37A50"/>
<path d="M789.684 315.974C771.503 314.704 735.194 304.992 735.194 304.992C730.231 312.605 731.603 322.717 731.603 322.717C759.838 347.471 802.331 355.473 815.369 349.515C827.272 344.076 818.817 271.599 788.931 255L789.684 315.974Z" fill="#C4204A"/>
<path d="M693.615 274.949C694.646 277.53 697.293 278.898 699.53 278.005C701.766 277.112 702.744 274.297 701.713 271.716C700.683 269.136 698.035 267.768 695.799 268.661C693.563 269.554 692.585 272.369 693.615 274.949Z" fill="#17962E"/>
<path d="M685.998 274.073C686.613 275.613 688.192 276.429 689.526 275.896C690.86 275.363 691.444 273.684 690.829 272.144C690.215 270.605 688.635 269.789 687.301 270.322C685.967 270.855 685.383 272.534 685.998 274.073Z" fill="#17962E"/>
</g>
<defs>
<clipPath id="clip0_2122_18908">
<rect width="1077.26" height="647" fill="white"/>
</clipPath>
</defs>
</svg>
