<svg  viewBox="0 0 41 40" fill="none" xmlns="http://www.w3.org/2000/svg">
<path d="M29.732 21V24C29.732 25.0609 29.3106 26.0783 28.5604 26.8284C27.8103 27.5786 26.7929 28 25.732 28H15.732C14.6711 28 13.6537 27.5786 12.9036 26.8284C12.1534 26.0783 11.732 25.0609 11.732 24V21.6C11.732 21.4409 11.7952 21.2883 11.9077 21.1757C12.0203 21.0632 12.1729 21 12.332 21H29.732ZM29.732 21V15C29.732 13.9391 29.3106 12.9217 28.5604 12.1716C27.8103 11.4214 26.7929 11 25.732 11H20.732M24.732 28L25.732 30M16.732 28L15.732 30" stroke="currentColor" stroke-width="2" stroke-linecap="round" stroke-linejoin="round"/>
<path d="M24.132 16H17.332C17.001 16 16.736 15.732 16.772 15.402C16.918 14.075 17.595 11 20.732 11C23.869 11 24.546 14.075 24.692 15.402C24.728 15.732 24.463 16 24.132 16Z" stroke="currentColor" stroke-width="2" stroke-linecap="round" stroke-linejoin="round"/>
</svg>
