<svg viewBox="0 0 40 40" fill="none" xmlns="http://www.w3.org/2000/svg">
<path d="M12.5 14.75C12.5 13.7554 12.8951 12.8016 13.5983 12.0983C14.3016 11.3951 15.2554 11 16.25 11H23.75C24.7446 11 25.6984 11.3951 26.4017 12.0983C27.1049 12.8016 27.5 13.7554 27.5 14.75V17.075C28.347 17.2479 29.1083 17.7081 29.655 18.3778C30.2017 19.0475 30.5002 19.8855 30.5 20.75V28.25C30.5 28.4489 30.421 28.6397 30.2803 28.7803C30.1397 28.921 29.9489 29 29.75 29C29.5511 29 29.3603 28.921 29.2197 28.7803C29.079 28.6397 29 28.4489 29 28.25V24.5H11V28.25C11 28.4489 10.921 28.6397 10.7803 28.7803C10.6397 28.921 10.4489 29 10.25 29C10.0511 29 9.86032 28.921 9.71967 28.7803C9.57902 28.6397 9.5 28.4489 9.5 28.25V20.75C9.49982 19.8855 9.79834 19.0475 10.345 18.3778C10.8917 17.7081 11.653 17.2479 12.5 17.075V14.75ZM11 23H29V20.75C29 20.1533 28.7629 19.581 28.341 19.159C27.919 18.7371 27.3467 18.5 26.75 18.5H13.25C12.6533 18.5 12.081 18.7371 11.659 19.159C11.2371 19.581 11 20.1533 11 20.75V23ZM26 14.75C26 14.1533 25.7629 13.581 25.341 13.159C24.919 12.7371 24.3467 12.5 23.75 12.5H16.25C15.6533 12.5 15.081 12.7371 14.659 13.159C14.2371 13.581 14 14.1533 14 14.75V17H15.5V16.25C15.5 16.0511 15.579 15.8603 15.7197 15.7197C15.8603 15.579 16.0511 15.5 16.25 15.5H18.5C18.6989 15.5 18.8897 15.579 19.0303 15.7197C19.171 15.8603 19.25 16.0511 19.25 16.25V17H20.75V16.25C20.75 16.0511 20.829 15.8603 20.9697 15.7197C21.1103 15.579 21.3011 15.5 21.5 15.5H23.75C23.9489 15.5 24.1397 15.579 24.2803 15.7197C24.421 15.8603 24.5 16.0511 24.5 16.25V17H26V14.75Z" fill="currentColor"/>
</svg>
