<svg viewBox="0 0 19 19" fill="none" xmlns="http://www.w3.org/2000/svg">
<path d="M11.968 9.4625C12.0805 9.5125 12.1993 9.53125 12.3118 9.53125C12.568 9.53125 12.818 9.425 12.9993 9.23125L14.4618 7.65625H16.3743C17.4055 7.65625 18.2493 6.8125 18.2493 5.78125V2.65625C18.2493 1.625 17.4055 0.78125 16.3743 0.78125H11.3743C10.343 0.78125 9.49927 1.625 9.49927 2.65625V5.775C9.49927 6.80625 10.343 7.65 11.3743 7.65V8.5875C11.3743 8.98125 11.6055 9.31875 11.968 9.4625ZM10.7493 2.65625C10.7493 2.3125 11.0305 2.03125 11.3743 2.03125H16.3743C16.718 2.03125 16.9993 2.3125 16.9993 2.65625V5.78125C16.9993 6.125 16.718 6.40625 16.3743 6.40625H13.9118L12.6243 7.79375V6.40625H11.3743C11.0305 6.40625 10.7493 6.125 10.7493 5.78125V2.65625ZM6.06177 10.7812C4.33677 10.7812 2.93677 9.38125 2.93677 7.65625C2.93677 5.93125 4.33677 4.53125 6.06177 4.53125C7.78677 4.53125 9.18677 5.93125 9.18677 7.65625C9.18677 9.38125 7.78677 10.7812 6.06177 10.7812ZM6.06177 5.78125C5.03052 5.78125 4.18677 6.625 4.18677 7.65625C4.18677 8.6875 5.03052 9.53125 6.06177 9.53125C7.09302 9.53125 7.93677 8.6875 7.93677 7.65625C7.93677 6.625 7.09302 5.78125 6.06177 5.78125ZM6.06177 18.275C4.24927 18.275 2.86177 17.775 1.92427 16.795C0.717391 15.5356 0.745516 13.9294 0.748641 13.7712V13.7606C0.749266 12.8188 1.53677 12.0312 2.51177 12.0312H9.61177C10.5805 12.0312 11.3743 12.8181 11.3743 13.7919V13.7981C11.3768 13.9119 11.4118 15.5294 10.1993 16.8013C9.26177 17.7819 7.87427 18.2812 6.06177 18.2812V18.275ZM2.51177 13.28C2.23052 13.28 1.99927 13.5113 1.99927 13.7925V13.7962C1.99739 13.8856 1.98177 15.0619 2.83677 15.9462C3.52427 16.6644 4.61177 17.0263 6.06177 17.0263C7.51177 17.0263 8.59302 16.6637 9.28677 15.9462C10.1618 15.0406 10.1305 13.8294 10.1243 13.8169C10.1243 13.5106 9.89302 13.28 9.61177 13.28H2.51177Z" fill="currentColor"/>
</svg>
