<svg viewBox="0 0 40 40" fill="none" xmlns="http://www.w3.org/2000/svg">
<path fill-rule="evenodd" clip-rule="evenodd" d="M26.4 12.8799C26.591 12.8799 26.7741 12.9557 26.9091 13.0908C27.0441 13.2258 27.12 13.4089 27.12 13.5999V19.9999C27.12 20.1908 27.0441 20.374 26.9091 20.509C26.7741 20.644 26.591 20.7199 26.4 20.7199C26.209 20.7199 26.0259 20.644 25.8909 20.509C25.7559 20.374 25.68 20.1908 25.68 19.9999V15.3375L15.3376 25.6799H20C20.191 25.6799 20.3741 25.7557 20.5091 25.8908C20.6441 26.0258 20.72 26.2089 20.72 26.3999C20.72 26.5908 20.6441 26.774 20.5091 26.909C20.3741 27.044 20.191 27.1199 20 27.1199H13.6C13.409 27.1199 13.2259 27.044 13.0909 26.909C12.9559 26.774 12.88 26.5908 12.88 26.3999V19.9999C12.88 19.9053 12.8986 19.8117 12.9348 19.7244C12.971 19.637 13.024 19.5576 13.0909 19.4908C13.1577 19.4239 13.2371 19.3709 13.3245 19.3347C13.4118 19.2985 13.5055 19.2799 13.6 19.2799C13.6946 19.2799 13.7882 19.2985 13.8755 19.3347C13.9629 19.3709 14.0423 19.4239 14.1091 19.4908C14.176 19.5576 14.229 19.637 14.2652 19.7244C14.3014 19.8117 14.32 19.9053 14.32 19.9999V24.6623L24.6624 14.3199H20C19.809 14.3199 19.6259 14.244 19.4909 14.109C19.3559 13.974 19.28 13.7908 19.28 13.5999C19.28 13.4089 19.3559 13.2258 19.4909 13.0908C19.6259 12.9557 19.809 12.8799 20 12.8799H26.4Z" fill="currentColor"/>
</svg>
