<svg width="223" height="54" viewBox="0 0 223 54" fill="none" xmlns="http://www.w3.org/2000/svg">
<path d="M79.7281 37H74.1781V15.4167H79.7281V23.8958H82.5031L87.3131 15.4167H93.1714L87.1281 26.0542L93.1406 37H87.2823L82.5031 28.2125H79.7281V37ZM98.4577 37H92.4452L100.616 15.4167H106.783L114.954 37H108.941L107.554 33.1458H99.8452L98.4577 37ZM101.233 29.1375H106.166L103.699 21.8917L101.233 29.1375ZM124.398 37H118.848V19.7333H112.373V15.4167H130.873V19.7333H124.398V37ZM146.499 15.4167H152.049V31.1417C152.049 33.3 151.556 34.8725 150.569 35.8592C149.603 36.8253 148.041 37.3083 145.882 37.3083H138.791C136.632 37.3083 135.06 36.8253 134.073 35.8592C133.107 34.8725 132.624 33.3 132.624 31.1417V15.4167H138.174V31.1417C138.174 32.375 138.791 32.9917 140.024 32.9917H144.649C145.882 32.9917 146.499 32.375 146.499 31.1417V15.4167ZM174.146 37H168.288L160.888 24.05V37H155.338V15.4167H161.196L168.596 28.3667V15.4167H174.146V37ZM189.475 15.4167C191.797 15.4167 193.555 16.0231 194.747 17.2358C195.96 18.4281 196.566 20.1856 196.566 22.5083V29.9083C196.566 32.2311 195.96 33.9989 194.747 35.2117C193.555 36.4039 191.797 37 189.475 37H177.45V15.4167H189.475ZM191.016 22.5083C191.016 20.6583 190.091 19.7333 188.241 19.7333H183V32.6833H188.241C190.091 32.6833 191.016 31.7583 191.016 29.9083V22.5083ZM213.105 15.4167H218.655V31.1417C218.655 33.3 218.162 34.8725 217.175 35.8592C216.209 36.8253 214.647 37.3083 212.488 37.3083H205.397C203.238 37.3083 201.666 36.8253 200.679 35.8592C199.713 34.8725 199.23 33.3 199.23 31.1417V15.4167H204.78V31.1417C204.78 32.375 205.397 32.9917 206.63 32.9917H211.255C212.488 32.9917 213.105 32.375 213.105 31.1417V15.4167Z" fill="white"/>
<path d="M0.0500488 18C0.0500488 8.05887 8.10892 0 18.05 0H36.9501C46.8912 0 54.9501 8.05888 54.9501 18V36C54.9501 45.9411 46.8912 54 36.9501 54H18.05C8.10892 54 0.0500488 45.9411 0.0500488 36V18Z" fill="#4D5DFA"/>
<path d="M16.125 13C14.6758 13 13.5 14.1758 13.5 15.625V18.25H10.875C10.3937 18.25 10 18.6437 10 19.125C10 19.6063 10.3937 20 10.875 20H24.875C25.3563 20 25.75 20.3937 25.75 20.875C25.75 21.3563 25.3563 21.75 24.875 21.75H12.625C12.1437 21.75 11.75 22.1437 11.75 22.625C11.75 23.1063 12.1437 23.5 12.625 23.5H23.125C23.6063 23.5 24 23.8937 24 24.375C24 24.8563 23.6063 25.25 23.125 25.25H10.875C10.3937 25.25 10 25.6437 10 26.125C10 26.6063 10.3937 27 10.875 27H21.375C21.8563 27 22.25 27.3937 22.25 27.875C22.25 28.3563 21.8563 28.75 21.375 28.75H13.5V35.75C13.5 38.6484 15.8516 41 18.75 41C21.6484 41 24 38.6484 24 35.75H31C31 38.6484 33.3516 41 36.25 41C39.1484 41 41.5 38.6484 41.5 35.75H43.25C44.218 35.75 45 34.968 45 34C45 33.032 44.218 32.25 43.25 32.25V25.9773C43.25 25.0477 42.8836 24.1562 42.2273 23.5L38 19.2727C37.3438 18.6164 36.4523 18.25 35.5227 18.25H32.75V15.625C32.75 14.1758 31.5742 13 30.125 13H16.125ZM39.75 25.9773V27H32.75V21.75H35.5227L39.75 25.9773ZM18.75 38.375C17.3008 38.375 16.125 37.1992 16.125 35.75C16.125 34.3008 17.3008 33.125 18.75 33.125C20.1992 33.125 21.375 34.3008 21.375 35.75C21.375 37.1992 20.1992 38.375 18.75 38.375ZM38.875 35.75C38.875 37.1992 37.6992 38.375 36.25 38.375C34.8008 38.375 33.625 37.1992 33.625 35.75C33.625 34.3008 34.8008 33.125 36.25 33.125C37.6992 33.125 38.875 34.3008 38.875 35.75Z" fill="#F5F9FF"/>
</svg>
