<svg width="223" height="54" viewBox="0 0 223 54" fill="none" xmlns="http://www.w3.org/2000/svg">
<path d="M79.7781 36H74.2281V14.4167H79.7781V22.8958H82.5531L87.3631 14.4167H93.2215L87.1781 25.0542L93.1906 36H87.3323L82.5531 27.2125H79.7781V36ZM98.5078 36H92.4953L100.666 14.4167H106.833L115.004 36H108.991L107.604 32.1458H99.8953L98.5078 36ZM101.283 28.1375H106.216L103.749 20.8917L101.283 28.1375ZM124.448 36H118.898V18.7333H112.423V14.4167H130.923V18.7333H124.448V36ZM146.549 14.4167H152.099V30.1417C152.099 32.3 151.606 33.8725 150.619 34.8592C149.653 35.8253 148.091 36.3083 145.933 36.3083H138.841C136.683 36.3083 135.11 35.8253 134.123 34.8592C133.157 33.8725 132.674 32.3 132.674 30.1417V14.4167H138.224V30.1417C138.224 31.375 138.841 31.9917 140.074 31.9917H144.699C145.933 31.9917 146.549 31.375 146.549 30.1417V14.4167ZM174.196 36H168.338L160.938 23.05V36H155.388V14.4167H161.246L168.646 27.3667V14.4167H174.196V36ZM189.525 14.4167C191.848 14.4167 193.605 15.0231 194.797 16.2358C196.01 17.4281 196.616 19.1856 196.616 21.5083V28.9083C196.616 31.2311 196.01 32.9989 194.797 34.2117C193.605 35.4039 191.848 36 189.525 36H177.5V14.4167H189.525ZM191.066 21.5083C191.066 19.6583 190.141 18.7333 188.291 18.7333H183.05V31.6833H188.291C190.141 31.6833 191.066 30.7583 191.066 28.9083V21.5083ZM213.155 14.4167H218.705V30.1417C218.705 32.3 218.212 33.8725 217.225 34.8592C216.259 35.8253 214.697 36.3083 212.539 36.3083H205.447C203.289 36.3083 201.716 35.8253 200.729 34.8592C199.763 33.8725 199.28 32.3 199.28 30.1417V14.4167H204.83V30.1417C204.83 31.375 205.447 31.9917 206.68 31.9917H211.305C212.539 31.9917 213.155 31.375 213.155 30.1417V14.4167Z" fill="#4D5DFA"/>
<path d="M0 18C0 8.05887 8.05888 0 18 0H36.9C46.8411 0 54.9 8.05888 54.9 18V36C54.9 45.9411 46.8411 54 36.9 54H18C8.05887 54 0 45.9411 0 36V18Z" fill="#4D5DFA"/>
<path d="M16.075 13C14.6257 13 13.45 14.1758 13.45 15.625V18.25H10.825C10.3437 18.25 9.94995 18.6437 9.94995 19.125C9.94995 19.6063 10.3437 20 10.825 20H24.825C25.3062 20 25.7 20.3937 25.7 20.875C25.7 21.3563 25.3062 21.75 24.825 21.75H12.575C12.0937 21.75 11.7 22.1437 11.7 22.625C11.7 23.1063 12.0937 23.5 12.575 23.5H23.075C23.5562 23.5 23.95 23.8937 23.95 24.375C23.95 24.8563 23.5562 25.25 23.075 25.25H10.825C10.3437 25.25 9.94995 25.6437 9.94995 26.125C9.94995 26.6063 10.3437 27 10.825 27H21.325C21.8062 27 22.2 27.3937 22.2 27.875C22.2 28.3563 21.8062 28.75 21.325 28.75H13.45V35.75C13.45 38.6484 15.8015 41 18.7 41C21.5984 41 23.95 38.6484 23.95 35.75H30.95C30.95 38.6484 33.3015 41 36.2 41C39.0984 41 41.45 38.6484 41.45 35.75H43.2C44.1679 35.75 44.95 34.968 44.95 34C44.95 33.032 44.1679 32.25 43.2 32.25V25.9773C43.2 25.0477 42.8335 24.1562 42.1773 23.5L37.95 19.2727C37.2937 18.6164 36.4023 18.25 35.4726 18.25H32.7V15.625C32.7 14.1758 31.5242 13 30.075 13H16.075ZM39.7 25.9773V27H32.7V21.75H35.4726L39.7 25.9773ZM18.7 38.375C17.2507 38.375 16.075 37.1992 16.075 35.75C16.075 34.3008 17.2507 33.125 18.7 33.125C20.1492 33.125 21.325 34.3008 21.325 35.75C21.325 37.1992 20.1492 38.375 18.7 38.375ZM38.825 35.75C38.825 37.1992 37.6492 38.375 36.2 38.375C34.7507 38.375 33.575 37.1992 33.575 35.75C33.575 34.3008 34.7507 33.125 36.2 33.125C37.6492 33.125 38.825 34.3008 38.825 35.75Z" fill="#F5F9FF"/>
</svg>
