<svg width="55" height="54" viewBox="0 0 55 54" fill="none" xmlns="http://www.w3.org/2000/svg">
<path d="M0.0500488 18C0.0500488 8.05887 8.10892 0 18.05 0H36.9501C46.8912 0 54.9501 8.05888 54.9501 18V36C54.9501 45.9411 46.8912 54 36.9501 54H18.05C8.10892 54 0.0500488 45.9411 0.0500488 36V18Z" fill="#4D5DFA"/>
<path d="M16.125 13C14.6758 13 13.5 14.1758 13.5 15.625V18.25H10.875C10.3937 18.25 10 18.6437 10 19.125C10 19.6063 10.3937 20 10.875 20H24.875C25.3563 20 25.75 20.3937 25.75 20.875C25.75 21.3563 25.3563 21.75 24.875 21.75H12.625C12.1437 21.75 11.75 22.1437 11.75 22.625C11.75 23.1063 12.1437 23.5 12.625 23.5H23.125C23.6063 23.5 24 23.8937 24 24.375C24 24.8563 23.6063 25.25 23.125 25.25H10.875C10.3937 25.25 10 25.6437 10 26.125C10 26.6063 10.3937 27 10.875 27H21.375C21.8563 27 22.25 27.3937 22.25 27.875C22.25 28.3563 21.8563 28.75 21.375 28.75H13.5V35.75C13.5 38.6484 15.8516 41 18.75 41C21.6484 41 24 38.6484 24 35.75H31C31 38.6484 33.3516 41 36.25 41C39.1484 41 41.5 38.6484 41.5 35.75H43.25C44.218 35.75 45 34.968 45 34C45 33.032 44.218 32.25 43.25 32.25V25.9773C43.25 25.0477 42.8836 24.1562 42.2273 23.5L38 19.2727C37.3438 18.6164 36.4523 18.25 35.5227 18.25H32.75V15.625C32.75 14.1758 31.5742 13 30.125 13H16.125ZM39.75 25.9773V27H32.75V21.75H35.5227L39.75 25.9773ZM18.75 38.375C17.3008 38.375 16.125 37.1992 16.125 35.75C16.125 34.3008 17.3008 33.125 18.75 33.125C20.1992 33.125 21.375 34.3008 21.375 35.75C21.375 37.1992 20.1992 38.375 18.75 38.375ZM38.875 35.75C38.875 37.1992 37.6992 38.375 36.25 38.375C34.8008 38.375 33.625 37.1992 33.625 35.75C33.625 34.3008 34.8008 33.125 36.25 33.125C37.6992 33.125 38.875 34.3008 38.875 35.75Z" fill="#F5F9FF"/>
</svg>
